<svg width="110" height="104" viewBox="0 0 110 104" fill="none" xmlns="http://www.w3.org/2000/svg">
<path d="M28.0478 38.0537C28.0478 17.0372 50.4709 -4.52041e-07 71.3119 1.36994e-06C92.1529 3.19191e-06 109.048 17.0372 109.048 38.0537C109.048 59.0702 101.582 78 80.7411 78C59.9001 78 28.0478 59.0702 28.0478 38.0537Z" fill="#C3FFC2"/>
<mask id="mask0_1348_1898" style="mask-type:alpha" maskUnits="userSpaceOnUse" x="14" y="0" width="95" height="104">
<path d="M33.484 38.1365C33.484 17.2914 50.3823 0.393083 71.2275 0.393085C92.0726 0.393087 108.971 17.2914 108.971 38.1365C108.971 58.9817 42.6244 104 21.7792 104C0.934093 104 33.484 58.9817 33.484 38.1365Z" fill="#FFCB3C"/>
</mask>
<g mask="url(#mask0_1348_1898)">
<path fill-rule="evenodd" clip-rule="evenodd" d="M75.7239 43.1892C78.057 44.1681 80.693 44.363 83.5985 43.5127C93.52 40.6093 97.5828 32.8778 98.1261 23.6677C98.8872 10.7225 92.4291 -5.21331 86.645 -13.1314C85.9689 -14.0564 84.6707 -14.2575 83.7457 -13.5835C82.8229 -12.9074 82.6196 -11.6092 83.2957 -10.6842C88.6588 -3.34265 94.6918 11.4193 93.9846 23.423C93.549 30.8475 90.4299 37.1915 82.4329 39.533C80.7033 40.039 79.1293 39.9685 77.7128 39.4707C78.1732 38.5478 78.6129 37.6229 79.0298 36.698C80.6951 32.994 83.1837 22.7095 82.2546 15.1481C81.5184 9.16495 78.6917 4.87411 72.8599 5.03173C69.521 5.1209 67.0571 7.13877 65.5784 10.4466C63.7555 14.526 63.5066 20.7663 64.7883 26.7495C65.8522 31.7248 67.9635 36.4989 70.925 39.7093C71.3398 40.1593 71.7711 40.5803 72.217 40.9701C62.4946 58.2063 44.9473 74.2001 26.9314 81.0128C25.8613 81.4173 25.3222 82.6139 25.7266 83.6861C26.131 84.7562 27.3296 85.2954 28.3998 84.891C47.1913 77.7859 65.5079 61.1554 75.7239 43.1892ZM74.2286 37.1604C74.5812 36.4408 74.9214 35.7191 75.2449 34.9974C76.7402 31.6729 78.9716 22.442 78.1379 15.6542C77.6962 12.0622 76.4705 9.08411 72.9698 9.17743C71.2526 9.22306 70.1244 10.4384 69.3654 12.139C68.3575 14.3933 67.9986 17.4502 68.1583 20.7041C68.4093 25.7519 69.9336 31.2768 72.6172 35.184C73.1129 35.9057 73.65 36.5714 74.2286 37.1604Z" fill="#35312B"/>
<path fill-rule="evenodd" clip-rule="evenodd" d="M40.8185 55.0738C39.2008 64.5079 33.0144 74.5456 26.3676 81.5014C25.5774 82.3289 25.6064 83.6416 26.4339 84.4339C27.2614 85.224 28.5762 85.195 29.3664 84.3675C36.5483 76.8496 43.1599 65.9679 44.9061 55.7748C45.099 54.6466 44.3398 53.5744 43.2116 53.3815C42.0834 53.1886 41.0113 53.9456 40.8185 55.0738Z" fill="#35312B"/>
<path fill-rule="evenodd" clip-rule="evenodd" d="M29.188 84.7632C36.0214 80.8622 46.5029 80.352 54.1431 82.3305C55.2526 82.6167 56.385 81.9489 56.6712 80.8414C56.9574 79.734 56.2916 78.6016 55.1821 78.3134C46.592 76.0922 34.8145 76.7745 27.1307 81.1608C26.1373 81.727 25.7909 82.9962 26.3592 83.9896C26.9274 84.983 28.1946 85.3293 29.188 84.7632Z" fill="#35312B"/>
</g>
<path fill-rule="evenodd" clip-rule="evenodd" d="M12.1809 98.6056C12.2066 99.1482 12.2014 99.6764 12.1758 100.172C12.0885 101.663 10.7027 101.658 10.5949 101.656C10.369 101.651 9.36293 101.587 9.12168 100.425C9.10628 100.355 9.07036 99.8534 9.06009 99.6599C9.03956 99.2473 9.02932 98.8418 9.08578 98.4347C9.03445 97.7444 8.92153 97.034 8.70595 96.3657C8.39285 95.3791 7.88469 94.4686 6.96591 93.9835C5.3234 93.1109 3.1625 93.1464 1.35574 92.9246C0.601207 92.8322 0.0263201 92.203 0.000655922 91.4433C-0.0198754 90.6831 0.513921 90.02 1.26332 89.8819C3.52177 89.4641 6.11902 87.4104 7.7718 85.7566C8.27996 85.2485 8.84968 84.0382 9.48616 83.2631C9.99944 82.642 10.5692 82.2258 11.1082 82.0605C11.3186 81.9963 12.4837 81.7623 13.0073 82.9685C13.151 83.3072 13.6592 85.0811 13.7053 85.2834C13.9825 86.4424 14.3777 87.4777 15.1528 88.3995C15.8252 89.1987 16.6413 89.8968 17.6217 90.2838C18.0169 90.4398 18.4276 90.5584 18.8382 90.6806C18.9819 90.698 19.3874 90.7493 19.5311 90.7981C19.8237 90.8956 20.0393 91.0486 20.1933 91.201C20.4859 91.4895 20.6347 91.8339 20.6604 92.226C20.6809 92.4847 20.645 92.7917 20.4602 93.132C20.3216 93.3738 20.0085 93.7377 19.4439 93.9738C18.8536 94.2207 17.5858 94.4553 17.3599 94.5163C15.7893 94.9393 14.2494 95.5824 13.0432 96.6973C12.4426 97.2547 12.3041 97.8557 12.1809 98.6056ZM11.1748 94.2407C10.5691 92.9852 9.66582 91.9283 8.40827 91.2626C7.88985 90.9859 7.32524 90.776 6.74009 90.6128C7.94631 89.7731 9.06528 88.8184 9.95327 87.9335C10.2407 87.6455 10.5538 87.1795 10.8874 86.6677C11.2775 88.0341 11.8524 89.2613 12.7968 90.3844C13.3563 91.0465 13.9877 91.6517 14.6909 92.1562C13.4179 92.6603 12.2117 93.3347 11.1748 94.2407Z" fill="#35312B"/>
</svg>
