<svg width="40" height="40" viewBox="0 0 40 40" fill="none" xmlns="http://www.w3.org/2000/svg">
<circle cx="20" cy="20" r="20" fill="url(#paint0_linear_1344_10593)"/>
<path fill-rule="evenodd" clip-rule="evenodd" d="M14.535 11.25C14.2469 11.2501 13.9632 11.3213 13.7092 11.4574C13.4552 11.5935 13.2387 11.7902 13.079 12.03L9.49001 17.412C9.27101 17.742 9.24501 18.164 9.42201 18.518C11.3861 22.4461 14.1156 25.9419 17.45 28.8L19.2 30.301C19.4229 30.4921 19.7069 30.5971 20.0005 30.5971C20.2941 30.5971 20.5781 30.4921 20.801 30.301L22.551 28.801C25.8859 25.9427 28.6158 22.4465 30.58 18.518C30.757 18.164 30.73 17.742 30.511 17.412L26.92 12.03C26.7603 11.7905 26.5439 11.5941 26.2901 11.4582C26.0363 11.3223 25.7529 11.2511 25.465 11.251L14.535 11.25ZM14.327 12.861C14.3499 12.8268 14.3808 12.7988 14.4171 12.7794C14.4534 12.7601 14.4939 12.75 14.535 12.75H16.875L14.96 17.346C14.9161 17.4512 14.8827 17.5603 14.86 17.672C14.1557 17.6194 13.4523 17.5561 12.75 17.482L11.345 17.335L14.327 12.861ZM11.28 18.836C13.0744 22.1281 15.443 25.0727 18.274 27.531L15.149 19.197C14.2964 19.1384 13.4449 19.0644 12.595 18.975L11.28 18.836ZM16.786 19.29L20 27.864L23.215 19.29C21.0728 19.3874 18.9272 19.3874 16.785 19.29H16.786ZM24.853 19.197L21.728 27.531C24.559 25.0727 26.9276 22.1281 28.722 18.836L27.407 18.975C26.557 19.064 25.706 19.138 24.853 19.197ZM28.656 17.335L27.25 17.483C26.5477 17.5571 25.8443 17.6204 25.14 17.673C25.1178 17.561 25.0846 17.4515 25.041 17.346L23.125 12.75H25.465C25.5061 12.75 25.5466 12.7601 25.5829 12.7794C25.6192 12.7988 25.6501 12.8268 25.673 12.861L28.656 17.335ZM23.593 17.77C21.2 17.894 18.803 17.894 16.409 17.77L18.5 12.75H21.5L23.592 17.77H23.593Z" fill="white"/>
<defs>
<linearGradient id="paint0_linear_1344_10593" x1="-11.2593" y1="-3.84615" x2="68.9329" y2="10.0642" gradientUnits="userSpaceOnUse">
<stop stop-color="#3CBA67"/>
<stop offset="0.509544" stop-color="#48D911"/>
<stop offset="1" stop-color="#5AFF15"/>
</linearGradient>
</defs>
</svg>
