<svg width="40" height="40" viewBox="0 0 40 40" fill="none" xmlns="http://www.w3.org/2000/svg">
<circle cx="20" cy="20" r="20" fill="url(#paint0_linear_1344_10603)"/>
<path d="M20 10.9999L20.394 10.0799C20.2695 10.0265 20.1355 9.99902 20 9.99902C19.8645 9.99902 19.7305 10.0265 19.606 10.0799L20 10.9999ZM20 28.9999L19.504 29.8679C19.6551 29.9542 19.826 29.9996 20 29.9996C20.174 29.9996 20.3449 29.9542 20.496 29.8679L20 28.9999ZM16.024 26.7269L15.527 27.5959L16.023 26.7269H16.024ZM19.606 10.0809L13.212 12.8199L14 14.6599L20.394 11.9199L19.606 10.0809ZM12 14.6589V21.5189H14V14.6589H12ZM15.527 27.5959L19.504 29.8679L20.496 28.1319L16.519 25.8589L15.527 27.5959ZM20.496 29.8679L24.473 27.5959L23.481 25.8589L19.504 28.1319L20.496 29.8679ZM28 21.5179V14.6599H26V21.5199H28V21.5179ZM26.788 12.8209L20.394 10.0809L19.606 11.9189L26 14.6599L26.788 12.8209ZM28 14.6599C28 14.2686 27.8851 13.8858 27.6697 13.5591C27.4542 13.2324 27.1477 12.9751 26.788 12.8209L26 14.6599H28ZM24.473 27.5959C25.5446 26.9835 26.4353 26.0997 27.0547 25.0321C27.6741 23.9645 28.0002 22.7522 28 21.5179H26C25.9999 22.3994 25.7667 23.2652 25.3242 24.0275C24.8816 24.7899 24.2454 25.4217 23.48 25.8589L24.473 27.5959ZM12 21.5179C11.9999 22.752 12.3261 23.9642 12.9455 25.0316C13.5649 26.099 14.4555 26.9836 15.527 27.5959L16.519 25.8589C15.7541 25.4217 15.1182 24.7902 14.6759 24.0282C14.2335 23.2663 14.0004 22.401 14 21.5199H12V21.5179ZM13.212 12.8199C12.8522 12.9742 12.5455 13.2316 12.3301 13.5586C12.1146 13.8855 11.9998 14.2684 12 14.6599H14L13.212 12.8219V12.8199Z" fill="white"/>
<path d="M23 18L19 22L17 20" stroke="white" stroke-width="2" stroke-linecap="round" stroke-linejoin="round"/>
<defs>
<linearGradient id="paint0_linear_1344_10603" x1="-11.2593" y1="-3.84615" x2="68.9329" y2="10.0642" gradientUnits="userSpaceOnUse">
<stop stop-color="#3CBA67"/>
<stop offset="0.509544" stop-color="#48D911"/>
<stop offset="1" stop-color="#5AFF15"/>
</linearGradient>
</defs>
</svg>
