<svg width="40" height="40" viewBox="0 0 40 40" fill="none" xmlns="http://www.w3.org/2000/svg">
<circle cx="20" cy="20" r="20" fill="url(#paint0_linear_1344_10615)"/>
<path d="M20 20C21.0609 20 22.0783 19.5786 22.8284 18.8284C23.5786 18.0783 24 17.0609 24 16C24 14.9391 23.5786 13.9217 22.8284 13.1716C22.0783 12.4214 21.0609 12 20 12C18.9391 12 17.9217 12.4214 17.1716 13.1716C16.4214 13.9217 16 14.9391 16 16C16 17.0609 16.4214 18.0783 17.1716 18.8284C17.9217 19.5786 18.9391 20 20 20Z" stroke="white" stroke-width="1.5" stroke-linecap="round" stroke-linejoin="round"/>
<path d="M13 28V27C12.9998 25.819 13.2983 24.6571 13.8679 23.6225C14.4375 22.5879 15.2596 21.7142 16.2577 21.0828C17.2558 20.4515 18.3974 20.0829 19.5763 20.0114C20.7551 19.9399 21.9329 20.1678 23 20.674M24.635 24.415L25.674 22.212C25.7021 22.149 25.7479 22.0955 25.8057 22.058C25.8636 22.0205 25.931 22.0005 26 22.0005C26.069 22.0005 26.1364 22.0205 26.1943 22.058C26.2521 22.0955 26.2979 22.149 26.326 22.212L27.366 24.415L29.689 24.771C29.987 24.816 30.105 25.2 29.889 25.42L28.209 27.133L28.605 29.554C28.656 29.865 28.345 30.102 28.078 29.955L26 28.812L23.922 29.955C23.655 30.102 23.344 29.865 23.395 29.555L23.791 27.133L22.111 25.42C21.895 25.2 22.013 24.816 22.311 24.77L24.635 24.415Z" stroke="white" stroke-width="1.5" stroke-linecap="round" stroke-linejoin="round"/>
<defs>
<linearGradient id="paint0_linear_1344_10615" x1="-11.2593" y1="-3.84615" x2="68.9329" y2="10.0642" gradientUnits="userSpaceOnUse">
<stop stop-color="#3CBA67"/>
<stop offset="0.509544" stop-color="#48D911"/>
<stop offset="1" stop-color="#5AFF15"/>
</linearGradient>
</defs>
</svg>
