<svg width="38" height="38" viewBox="0 0 38 38" fill="none" xmlns="http://www.w3.org/2000/svg">
<path opacity="0.1" fill-rule="evenodd" clip-rule="evenodd" d="M18.875 36.5C28.54 36.5 36.375 28.665 36.375 19C36.375 9.33502 28.54 1.5 18.875 1.5C9.21002 1.5 1.375 9.33502 1.375 19C1.375 28.665 9.21002 36.5 18.875 36.5Z" stroke="#EDFFED" stroke-width="1.5"/>
<path d="M24.5952 15.7647C24.514 15.6729 24.3831 15.6498 24.2757 15.7064C24.2089 15.7416 24.0833 15.7878 23.9342 15.8334C24.1223 15.5762 24.2735 15.2882 24.3403 15.0293C24.3692 14.9177 24.327 14.8001 24.2351 14.7336C24.1432 14.6677 24.0208 14.6677 23.9289 14.7336C23.7841 14.8375 23.0852 15.1497 22.6433 15.2508C21.6446 14.3511 20.4824 14.2577 19.2742 14.9831C18.2921 15.5729 18.0784 16.7721 18.1201 17.5031C15.8721 17.2805 14.4748 16.0593 13.6882 15.0485C13.6332 14.9776 13.5445 14.9403 13.4611 14.9458C13.3735 14.9524 13.2944 15.0024 13.2495 15.0799C12.8776 15.7257 12.7745 16.4396 12.9524 17.1447C13.0497 17.5295 13.2196 17.8686 13.4168 18.1434C13.3222 18.0956 13.2308 18.0357 13.1448 17.9642C13.0657 17.8972 12.9551 17.8845 12.8616 17.929C12.7686 17.9747 12.7093 18.0714 12.7093 18.1775C12.7093 19.3882 13.4456 20.1962 14.1333 20.6183C14.0222 20.6045 13.9062 20.5792 13.7892 20.5424C13.6888 20.5111 13.5798 20.5424 13.5103 20.6238C13.4408 20.7046 13.4243 20.82 13.4676 20.9184C13.8539 21.7972 14.5859 22.4017 15.4916 22.621C14.7008 23.0986 13.6423 23.3328 12.673 23.2179C12.5474 23.1998 12.4277 23.2817 12.3882 23.4059C12.3486 23.5301 12.4005 23.6664 12.5111 23.7301C13.9816 24.5793 15.311 24.8827 16.4599 24.8827C18.1318 24.8827 19.4222 24.2407 20.2077 23.7038C22.3253 22.2583 23.6451 19.663 23.4613 17.341C23.8006 17.0832 24.3083 16.6072 24.623 16.0955C24.6882 15.9922 24.6764 15.8559 24.5952 15.7647Z" fill="#EDFFED"/>
</svg>
