<svg width="145" height="56" viewBox="0 0 145 56" fill="none" xmlns="http://www.w3.org/2000/svg">
<mask id="path-1-outside-1_1326_2465" maskUnits="userSpaceOnUse" x="-1.99028" y="-9.85018" width="148.368" height="73.2437" fill="black">
<rect fill="white" x="-1.99028" y="-9.85018" width="148.368" height="73.2437"/>
<path d="M115.841 19.3576C116.247 18.7041 116.719 17.9848 116.889 17.7588C117.292 17.2219 118.183 17.4713 118.217 18.1308C118.232 18.4144 118.475 18.6894 118.756 18.7428C119.664 18.9142 119.832 19.7388 119.42 22.0143C119.087 23.8559 119.093 24.0531 119.471 23.6572C119.853 23.2582 119.85 23.3 119.452 24.0272C119.205 24.478 118.942 24.7529 118.866 24.638C118.791 24.5227 118.686 24.7932 118.632 25.2388C118.516 26.2075 118.697 26.2981 119.222 25.5335C119.435 25.223 119.765 25.033 119.956 25.1116C120.37 25.2826 122.211 24.1882 122.287 23.7265C122.316 23.5482 122.467 23.4217 122.622 23.4458C122.777 23.4696 123.223 23.2793 123.613 23.0226C124.063 22.7263 124.348 22.7093 124.395 22.9753C124.442 23.2378 124.643 23.211 124.932 22.9048C125.688 22.1017 127.6 21.3371 127.366 21.9309C127.229 22.2768 127.337 22.4015 127.718 22.3387C128.065 22.2815 128.391 22.5815 128.601 23.1525C128.874 23.8926 128.863 24.2386 128.542 25.0561C128.327 25.6056 128.181 26.2287 128.218 26.4408C128.255 26.6528 128.191 26.8106 128.074 26.7915C127.957 26.7724 127.743 27.1514 127.599 27.6333C127.455 28.1152 127.11 29.0633 126.833 29.7401C126.294 31.0577 126.316 31.6992 126.884 31.2466C127.077 31.0934 127.383 30.9533 127.564 30.9355C127.745 30.9173 128.011 30.6855 128.156 30.4194C128.301 30.1538 128.471 30.0757 128.534 30.2462C128.596 30.4166 128.81 30.385 129.009 30.1764C129.208 29.9674 129.659 29.7878 130.012 29.7773C130.365 29.7672 130.724 29.5651 130.81 29.3287C130.896 29.0923 131.114 28.9231 131.294 28.9525C131.474 28.9819 131.918 28.7575 132.281 28.454C132.645 28.1505 132.919 28.0397 132.892 28.2085C132.864 28.3769 133.065 28.2626 133.338 27.9538C133.843 27.3841 136.511 26.034 136.608 26.2993C136.709 26.5719 136.164 27.7055 135.949 27.6704C135.831 27.6511 135.827 27.4665 135.939 27.2601C136.051 27.0537 136.036 26.8673 135.905 26.8459C135.774 26.8244 135.623 27.0699 135.571 27.3915C135.508 27.7732 135.359 27.8666 135.142 27.6606C134.949 27.4788 134.838 27.5174 134.88 27.7522C134.919 27.9761 134.805 28.4024 134.625 28.6995C134.359 29.1399 134.344 29.1148 134.54 28.5638C134.672 28.1923 134.682 27.8719 134.562 27.8523C134.442 27.8327 134.321 27.9563 134.293 28.1275C134.228 28.5239 132.715 29.2217 132.531 28.9399C132.455 28.8236 132.291 28.9864 132.166 29.3019C131.875 30.0386 132.198 30.0812 133.187 29.4361C133.62 29.1535 134.007 29.0096 134.047 29.117C134.086 29.2244 133.656 29.5999 133.091 29.9512C132.348 30.4129 132.014 30.4585 131.888 30.1154C131.761 29.7727 131.627 29.7961 131.403 30.1996C131.233 30.5073 131.117 30.5786 131.145 30.3585C131.173 30.1383 130.96 30.4712 130.67 31.0981C130.38 31.725 130.244 31.9324 130.367 31.5593C130.489 31.1862 130.491 30.8645 130.371 30.8449C130.251 30.8253 130.12 31.0106 130.08 31.257C130.033 31.5407 129.776 31.5785 129.378 31.36C129.032 31.1702 128.66 31.1785 128.551 31.3781C128.442 31.5778 128.526 31.7691 128.736 31.8036C129.128 31.8676 129.542 33.0402 129.425 33.7551C129.389 33.974 129.272 33.7983 129.165 33.3652C129.057 32.9316 128.842 32.6773 128.686 32.8002C128.53 32.9226 128.43 32.8528 128.464 32.6443C128.567 32.019 127.963 31.6743 127.299 31.9784C126.68 32.2617 126.324 33.0438 126.781 33.1185C126.912 33.1399 126.99 32.9896 126.954 32.7847C126.866 32.2865 127.737 32.0652 128.029 32.5114C128.297 32.92 127.437 33.6344 126.802 33.5306C126.49 33.4795 126.455 33.5829 126.605 34.1113C126.706 34.4649 126.748 34.7627 126.699 34.7731C126.65 34.7835 126.293 34.8293 125.906 34.8744C125.519 34.9199 125.09 35.1566 124.953 35.4001C124.785 35.6968 124.705 35.5398 124.709 34.9252C124.714 34.4204 124.627 33.9923 124.518 33.9744C124.409 33.9565 124.381 33.7223 124.457 33.4536C124.532 33.1852 124.423 32.9855 124.214 33.0102C123.904 33.0469 123.899 32.6979 124.188 31.1114C124.459 29.625 124.465 29.0468 124.211 28.6547C123.946 28.2465 123.859 28.2641 123.781 28.7425C123.693 29.2802 123.528 29.3923 123.094 29.2117C123.018 29.18 122.833 29.378 122.684 29.6519C122.535 29.9258 122.279 30.1471 122.115 30.1444C121.951 30.1413 121.635 30.1375 121.413 30.1354C121.19 30.133 120.961 30.4204 120.903 30.7734C120.824 31.2606 120.642 31.347 120.151 31.1302C119.747 30.9518 119.475 31.0192 119.428 31.3086C119.326 31.9303 118.16 32.5647 117.78 32.2051C117.613 32.0475 117.449 32.0869 117.416 32.2926C117.382 32.4988 117.202 32.6423 117.016 32.6119C116.831 32.5815 116.713 32.3465 116.755 32.0898C116.797 31.8331 116.611 31.3773 116.342 31.0775C115.94 30.6297 115.835 30.6371 115.756 31.1203C115.703 31.4442 115.812 31.7338 115.998 31.7642C116.184 31.7946 116.307 31.9986 116.271 32.2175C116.18 32.7751 115.21 32.5551 114.977 31.9242C114.705 31.1849 114.824 30.7569 115.285 30.8181C115.63 30.8635 115.633 30.8034 115.304 30.352C114.78 29.6337 114.779 29.6286 115.024 29.1791C115.175 28.901 115.354 28.925 115.607 29.2566C115.902 29.6435 115.966 29.6148 115.94 29.1079C115.916 28.6528 115.573 28.4254 114.692 28.2814C113.326 28.0581 113.103 28.0939 113.113 28.5342C113.117 28.7036 112.861 28.7995 112.544 28.7476C112.227 28.6958 111.999 28.8296 112.037 29.0451C112.194 29.938 110.445 30.2661 110.036 29.4201C109.834 29.0008 109.787 29.0733 109.774 29.8272C109.762 30.5399 109.663 30.7284 109.329 30.6738C109.093 30.6352 108.928 30.4301 108.963 30.2179C108.997 30.0062 108.875 29.9024 108.69 29.9879C108.299 30.1687 108.053 29.4514 107.976 27.9047C107.931 27.0015 107.973 26.8544 108.213 27.0812C108.373 27.2329 108.534 27.1798 108.569 26.9633C108.694 26.1975 107.564 25.9768 106.933 26.6434C106.338 27.2712 106.332 27.2968 106.765 27.3867C107.132 27.4632 107.142 27.5366 106.815 27.7999C106.521 28.0367 106.373 27.8584 106.246 27.1148L106.075 26.1101L105.68 26.9377C105.418 27.4893 105.117 27.702 104.78 27.5754C104.243 27.3744 103.478 27.9628 103.573 28.5035C103.664 29.0202 102.38 29.1004 101.156 28.6543C100.391 28.3752 99.8844 28.3908 99.5883 28.7016C99.2308 29.0772 99.1331 29.062 99.0548 28.6177C98.9872 28.2347 98.892 28.1967 98.7327 28.489C98.3935 29.1119 97.8191 28.8848 97.6009 28.0412C97.4202 27.3435 97.4094 27.3463 97.4348 28.0852C97.4549 28.6655 97.3861 28.805 97.1762 28.6097C96.3319 27.8243 95.962 27.6523 95.9025 28.0165C95.8661 28.239 95.2647 28.3155 94.5439 28.1887C93.8324 28.0642 92.6221 27.9844 91.8541 28.0121C91.0861 28.0394 90.0008 27.9903 89.4425 27.9022C88.8842 27.8146 88.2609 27.9162 88.0576 28.1282C87.8334 28.3616 87.6518 28.3569 87.5968 28.1162C87.4533 27.4896 85.8054 27.3407 85.8375 27.9569C85.8698 28.5804 83.9172 28.3764 83.8057 27.7448C83.7667 27.5235 83.5693 27.4189 83.3673 27.5125C83.1608 27.6079 83.0367 27.4569 83.0842 27.1667C83.1317 26.8762 82.8797 27.0332 82.5066 27.5267C81.9203 28.3017 81.8489 28.3198 81.8829 27.6842C81.9149 27.0867 81.8496 27.0421 81.4914 27.4184C81.0344 27.8986 80.0665 27.9651 77.6784 27.6809C76.867 27.5846 76.1247 27.63 76.029 27.7823C75.9333 27.9342 74.806 27.9824 73.5242 27.8889C71.5 27.741 71.2071 27.6359 71.2967 27.0883C71.3904 26.5147 71.3583 26.5091 70.9435 27.0252C70.4545 27.633 70.0356 27.7255 70.1204 27.2069C70.2031 26.701 68.7584 26.6724 68.0557 27.166C67.5727 27.5051 67.4119 27.4956 67.4027 27.1267C67.394 26.7681 67.2259 26.7749 66.774 27.1526C66.3098 27.5406 65.9913 27.5469 65.4873 27.1785C64.7588 26.6466 64.3065 26.7893 64.4337 27.5117C64.4853 27.8033 64.4267 27.8346 64.2719 27.598C63.9415 27.0933 62.9895 26.7684 63.0631 27.1855C63.1551 27.708 62.2201 27.8343 62.0322 27.3246C61.9164 27.0102 61.7543 26.9878 61.5032 27.2516C61.3043 27.4606 60.8086 27.5349 60.4016 27.416C59.9833 27.2941 59.5822 27.4022 59.4784 27.6647C59.356 27.9749 59.1108 27.9957 58.7402 27.7267C58.3403 27.4366 57.9075 27.517 57.1916 28.0133C56.3605 28.5897 56.1809 28.6053 56.0933 28.1092C56.0054 27.6098 55.8746 27.583 55.267 27.9385C54.8699 28.1707 54.1252 28.3812 53.6122 28.4056C53.0991 28.43 52.5041 28.5669 52.2899 28.7092C51.8741 28.9857 49.7814 29.2594 49.5158 29.0721C49.4283 29.0104 49.4111 28.7955 49.4776 28.5943C49.552 28.3699 49.4224 28.343 49.1418 28.5251C48.8907 28.688 48.58 28.7275 48.4514 28.6125C48.3228 28.4975 48.1206 28.5813 48.0024 28.7986C47.6844 29.3824 47.3485 29.2139 47.4607 28.5273C47.5144 28.199 47.4062 27.9054 47.2203 27.875C47.0344 27.8446 46.8383 28.0884 46.7846 28.4168C46.6954 28.9625 46.2025 29.1585 45.671 28.86C44.9394 28.449 43.6296 28.2512 43.2618 28.4963C42.975 28.6872 42.8175 28.6116 42.7962 28.2722C42.7756 27.9477 42.7187 27.9948 42.6408 28.4005C42.5459 28.8945 42.3149 28.9867 41.631 28.8038C41.1433 28.6734 40.7211 28.7086 40.6927 28.8821C40.6387 29.2125 39.6268 28.8121 39.3162 28.3371C39.209 28.1737 39.1748 28.2837 39.2321 28.6082C39.3049 29.0209 39.189 29.0813 38.7596 28.8533C38.4466 28.6873 38.1108 28.6978 38.0136 28.8764C37.9163 29.055 37.6482 29.1706 37.4179 29.1329C37.1878 29.0953 36.9352 29.2408 36.8569 29.4564C36.764 29.7121 36.3661 29.6663 35.7097 29.324C35.1571 29.0355 34.6317 28.8907 34.5422 29.0024C34.4525 29.1136 34.237 29.2177 34.0629 29.2338C33.8888 29.2498 33.5194 29.3451 33.2422 29.4461C32.9012 29.5702 32.7042 29.3982 32.6337 28.9151C32.5398 28.2696 32.5014 28.2805 32.2377 29.0261C32.0028 29.6901 31.8105 29.798 31.2523 29.5781C30.8707 29.4278 29.7393 29.5395 28.7381 29.8257C27.7368 30.1124 26.4478 30.363 25.8735 30.3827C25.2992 30.4028 24.6137 30.5649 24.3503 30.7434C24.0868 30.9218 23.7411 30.9445 23.5818 30.7938C23.3151 30.5414 21.0176 31.3231 20.0209 32.0052C19.7867 32.1655 19.3968 32.1627 19.1542 31.9988C18.9119 31.8349 18.683 31.8878 18.6457 32.1163C18.6083 32.3451 17.974 32.5634 17.2359 32.6017C16.498 32.64 15.8242 32.7804 15.7388 32.9135C15.3925 33.4535 13.6522 33.7951 13.4504 33.3624C13.3104 33.0625 13.1797 33.0918 13.0363 33.4553C12.921 33.7474 12.4757 34.0494 12.0471 34.1264C11.6183 34.203 11.069 34.4834 10.8264 34.7486C10.0298 35.6204 8.96222 35.8099 8.07137 35.2385C7.02704 34.5684 7.01315 34.5359 7.48249 33.8517C7.72211 33.5026 7.77659 33.277 7.62695 33.2525C7.49535 33.231 7.29547 33.3822 7.18306 33.5886C6.84176 34.2157 6.54257 33.944 6.49684 32.9656C6.46982 32.3879 6.55988 31.9531 6.73624 31.8099C6.92881 31.6538 6.95786 31.3671 6.82785 30.9099C6.72298 30.5409 6.54373 30.3126 6.42929 30.4026C6.04232 30.7075 6.16016 29.4334 6.58439 28.7251C6.92301 28.1597 6.9724 27.8789 6.83548 27.2954C6.74177 26.8964 6.58007 26.6754 6.47609 26.8047C6.37212 26.934 6.32379 26.815 6.36875 26.5399C6.47899 25.8657 7.99575 23.9094 8.18461 24.1978C8.26716 24.3241 8.50845 23.9847 8.72064 23.444C9.04889 22.608 9.24599 22.4838 10.0377 22.6132C10.7469 22.7291 10.9617 22.6265 10.9385 22.1839C10.9142 21.7128 11.0335 21.6935 11.5653 22.082C12.3729 22.6717 12.3236 22.6674 12.4067 22.1591C12.4446 21.9275 12.3561 21.8317 12.2101 21.9467C12.064 22.0618 12.004 21.7917 12.0768 21.3463C12.1923 20.6398 12.2754 20.5987 12.7276 21.0228C13.0127 21.2901 13.3483 21.4283 13.4731 21.3302C13.5981 21.2318 13.6257 21.5105 13.5346 21.95C13.3489 22.844 13.0685 22.9698 13.019 22.1812C12.9959 21.8092 12.9602 21.7964 12.8915 22.1362C12.7584 22.7944 13.0569 23.1571 13.5455 22.9309C13.7723 22.8258 13.9447 22.4857 13.9287 22.175C13.9126 21.8643 14.0071 21.6276 14.1387 21.6491C14.2703 21.6706 14.3725 22.0531 14.3658 22.499C14.359 22.945 14.4635 23.2232 14.5976 23.1176C14.732 23.0117 15.1769 22.8192 15.5864 22.6892C16.2236 22.4873 16.2783 22.5306 15.9645 22.988C15.6692 23.4183 15.6691 23.5339 15.9636 23.582C16.1646 23.6149 16.382 23.3284 16.4464 22.9458C16.5363 22.413 16.5882 22.3814 16.6675 22.812C16.75 23.2582 16.8244 23.2393 17.0297 22.7192C17.2276 22.2183 17.4421 22.1487 17.9424 22.423C18.4736 22.7146 18.6412 22.6402 18.8366 22.0286C19.0357 21.4052 19.1353 21.3659 19.4156 21.7987C19.602 22.0867 19.6807 22.4571 19.5908 22.6222C19.3675 23.0324 19.7065 23.042 20.1951 22.6393C20.4625 22.419 20.5025 22.2915 20.3155 22.2565C19.8666 22.1733 20.103 21.5143 20.6348 21.3667C20.9016 21.2927 21.043 21.3734 20.9488 21.5464C20.8545 21.7193 20.8572 21.9821 20.9543 22.1308C21.0515 22.2795 21.2818 22.1034 21.4659 21.7404C21.782 21.1158 21.8194 21.1252 22.147 21.9066C22.3376 22.3611 22.5248 22.542 22.563 22.3084C22.6012 22.0748 23.0578 21.8291 23.5778 21.7621C24.0978 21.6951 24.5499 21.4772 24.5826 21.2774C24.6153 21.0776 24.9015 20.9569 25.2186 21.0087C25.5456 21.0622 25.707 21.2655 25.591 21.4782C25.2669 22.0734 25.7849 21.9844 26.2882 21.3589C26.5403 21.045 26.7123 20.9881 26.6725 21.2317C26.62 21.5525 26.748 21.5722 27.1432 21.3046C27.4417 21.1025 27.7242 21.0416 27.7714 21.169C27.8755 21.4521 28.4816 20.7294 28.793 19.9512C28.9229 19.6267 28.9513 19.8974 28.859 20.5823C28.7188 21.6235 28.7402 21.6809 29.0213 21.0175C29.1995 20.5971 29.3125 20.4974 29.2727 20.7962C29.2212 21.1817 29.3924 21.2951 29.8613 21.1867C30.3519 21.0732 30.4183 21.1237 30.1185 21.3824C29.7715 21.682 29.7699 21.7414 30.1078 21.8019C30.3243 21.8406 30.5324 21.6813 30.5706 21.4477C30.6105 21.2037 30.8147 21.1619 31.0495 21.3491C31.2747 21.5285 31.4837 21.5234 31.5141 21.338C31.5445 21.1521 31.9067 20.8472 32.319 20.6601C32.7314 20.4729 33.042 20.4836 33.0094 20.6834C32.8766 21.4953 33.5686 21.0724 33.9783 20.0911C34.22 19.5124 34.3087 19.4035 34.1752 19.8491C33.9635 20.5566 34.0223 20.6509 34.6407 20.5938C35.0989 20.5518 35.3203 20.7008 35.2688 21.016C35.2249 21.2843 35.4577 21.1131 35.786 20.6364C36.3259 19.8518 36.3717 19.8417 36.2665 20.5278C36.1615 21.2123 36.2113 21.2004 36.7765 20.4069L37.4032 19.5273L37.6807 20.5375C37.8335 21.0929 37.9889 21.4403 38.0263 21.3092C38.0637 21.178 38.149 20.8956 38.2157 20.6818C38.2823 20.4679 38.3702 20.1697 38.4108 20.019C38.4514 19.8683 38.5711 19.9798 38.6768 20.2668C38.9078 20.8934 39.4301 21.0377 39.5182 20.4987C39.5528 20.287 39.4122 20.1917 39.2057 20.2871C38.9992 20.3828 38.8563 20.3011 38.8884 20.1052C38.9204 19.9094 39.1538 19.7555 39.4071 19.763C39.6702 19.7709 39.8275 20.0222 39.774 20.3489C39.7226 20.6638 39.7775 20.9645 39.8961 21.0178C40.5101 21.2927 40.67 21.2375 40.7542 20.7221C40.8049 20.412 41.0105 20.1098 41.2111 20.0506C41.5352 19.9548 41.5304 19.9839 41.1687 20.3101C40.6188 20.8058 40.9785 20.845 41.5927 20.3561C41.973 20.0534 42.2155 20.131 42.687 20.7063C43.0201 21.113 43.3693 21.3049 43.463 21.1327C43.5568 20.9609 43.5207 20.7085 43.3832 20.572C43.2256 20.4163 43.274 20.3355 43.5139 20.3543C43.7231 20.371 43.9006 20.6154 43.908 20.8973C43.9181 21.2798 44.0208 21.3109 44.3122 21.019C44.5271 20.804 44.9493 20.7141 45.2502 20.8192C45.5511 20.9248 46.1776 20.7923 46.6423 20.5246C47.2756 20.1607 47.5332 20.1631 47.6702 20.5349C47.9283 21.235 48.1959 21.2003 48.3184 20.4509C48.3861 20.0366 48.5323 19.915 48.7339 20.1057C48.9287 20.2899 49.0146 20.2276 48.9637 19.9389C48.9071 19.6183 49.0994 19.6039 49.5955 19.8922C49.9878 20.1198 50.3169 20.4703 50.3267 20.6709C50.3367 20.8712 50.4489 20.9533 50.5761 20.8531C50.7034 20.7529 50.7921 20.3772 50.7735 20.0182C50.7446 19.4606 50.8013 19.4462 51.1616 19.9186C51.4918 20.3514 51.6772 20.374 52.0121 20.0225C52.3666 19.6498 52.4596 19.7054 52.5533 20.3476C52.6603 21.0815 52.6976 21.0757 53.2488 20.2378C53.5692 19.7512 53.763 19.5945 53.6798 19.8898C53.5966 20.1851 53.6418 20.5297 53.7802 20.6553C53.9189 20.7809 54.0638 20.6898 54.1026 20.4526C54.1416 20.2138 54.5816 20.0883 55.0894 20.1714C55.5933 20.2537 56.2461 20.1582 56.5401 19.959C56.8432 19.754 56.9875 19.7575 56.8733 19.9673C56.7626 20.1707 56.8513 20.4586 57.0705 20.6068C57.362 20.804 57.4607 20.7098 57.4373 20.2569C57.4106 19.745 57.474 19.728 57.8035 20.1599C58.0654 20.5038 58.272 20.5536 58.4066 20.3063C58.5193 20.0991 59.0053 19.9943 59.4864 20.0729C59.9675 20.1516 60.4532 20.0471 60.5656 19.8407C60.8555 19.3083 61.6046 19.5031 61.6206 20.1154C61.6306 20.4975 61.7338 20.5286 62.0247 20.2379C62.4747 19.788 63.7726 19.3647 64.081 19.5671C64.7018 19.9747 65.9378 20.2393 65.9813 19.9735C66.0089 19.8043 66.3297 19.7529 66.6941 19.8591C67.0585 19.9653 67.384 19.8849 67.4176 19.6799C67.4518 19.4705 67.6505 19.5333 67.8717 19.8232C68.1593 20.2008 68.3658 20.2329 68.6412 19.9437C68.8491 19.7251 69.0471 19.7158 69.0836 19.9229C69.12 20.129 69.4895 20.3129 69.905 20.3318C70.3204 20.3507 70.7737 20.5915 70.912 20.8674C71.1047 21.2516 71.1431 21.246 71.0758 20.844C71.0187 20.5036 71.133 20.3323 71.4002 20.3568C73.7972 20.5766 76.669 20.3392 76.9225 19.9001C77.0894 19.6107 77.1398 19.6168 77.0927 19.9205C77.0557 20.158 77.3804 20.4106 77.8142 20.4815C78.3808 20.5741 78.6341 20.4329 78.7128 19.9811C78.8001 19.4825 78.8488 19.5187 78.9487 20.1558C79.0712 20.9367 79.0867 20.9396 79.5014 20.2698C79.7361 19.891 79.8923 19.8008 79.8484 20.0691C79.7896 20.4289 79.9013 20.4672 80.2731 20.2153C80.5801 20.0077 80.805 20.0277 80.8471 20.2667C80.9107 20.6277 81.7676 20.6783 82.5208 20.365C82.6926 20.2934 83.058 20.4459 83.3331 20.7038C83.6458 20.9972 83.8557 21.0324 83.8942 20.7972C83.928 20.5906 84.0752 20.5346 84.2218 20.673C84.3681 20.8113 84.781 20.7905 85.1394 20.6264C85.4978 20.4623 85.7999 20.4757 85.8106 20.6561C85.8216 20.8369 86.4474 20.8709 87.2019 20.7327C87.9563 20.5946 88.5502 20.6234 88.5217 20.7973C88.4933 20.9713 88.7514 20.9849 89.0953 20.8274C89.5499 20.6193 89.7037 20.6751 89.6586 21.0318C89.6113 21.4058 89.6432 21.4077 89.7924 21.0411C89.9003 20.7763 90.0645 20.6761 90.1576 20.8184C90.2507 20.9607 90.3507 20.9321 90.3797 20.755C90.4087 20.5779 90.8656 20.4903 91.3949 20.5605C92.5911 20.7189 93.6933 20.6004 94.1158 20.2678C94.2952 20.1263 94.5535 20.3279 94.6987 20.7223C94.8832 21.2224 95.0502 21.3175 95.2689 21.0456C95.4388 20.8343 95.8051 20.6984 96.0829 20.7439C96.3608 20.7893 96.6716 20.6726 96.7741 20.4846C96.9834 20.1003 97.3827 20.2081 97.7281 20.7419C97.8552 20.9384 98.0974 20.9898 98.2663 20.8569C98.4354 20.7239 98.9191 20.6951 99.3413 20.7932C99.7637 20.8912 100.46 20.7431 100.888 20.4633C101.317 20.1836 101.568 20.1376 101.446 20.3609C101.145 20.9151 101.377 20.9049 102.084 20.3327C102.7 19.8336 103.156 19.8938 104.123 20.6016C104.544 20.9094 104.838 20.8667 105.208 20.4455C105.488 20.1271 105.93 19.9019 106.191 19.9445C106.467 19.9897 106.779 19.6995 106.938 19.2494C107.088 18.8245 107.312 18.4932 107.435 18.5133C107.558 18.5334 107.556 18.7367 107.432 18.9653C107.275 19.2538 107.385 19.3091 107.794 19.1466C108.426 18.8948 108.902 18.9612 109.914 19.4422C110.269 19.6105 110.633 19.7812 110.724 19.8218C110.815 19.8624 110.956 20.5475 111.037 21.3445C111.177 22.7151 111.211 22.7596 111.679 22.1647C111.951 21.8185 112.152 21.3944 112.126 21.2213C112.099 21.0482 112.185 20.9245 112.316 20.946C112.447 20.9674 112.51 21.2552 112.456 21.5852C112.376 22.0763 112.45 22.1122 112.865 21.782C113.163 21.545 113.39 21.0509 113.415 20.5871C113.439 20.152 113.503 19.9186 113.558 20.0686C113.613 20.2186 113.819 20.1722 114.015 19.966C114.261 19.7079 114.486 19.7397 114.737 20.0684C115.038 20.4643 115.227 20.3427 115.841 19.3576Z"/>
<path d="M105.311 20.005C105.165 20.12 105.076 20.0242 105.114 19.7926C105.152 19.561 105.284 19.3877 105.408 19.408C105.532 19.4282 105.621 19.5236 105.605 19.6203C105.589 19.717 105.457 19.8899 105.311 20.005Z"/>
<path d="M138.419 25.6223C138.287 25.6008 138.209 25.4041 138.245 25.1852C138.281 24.9663 138.355 24.7945 138.409 24.8035C138.464 24.8124 138.542 25.0091 138.583 25.2405C138.624 25.4719 138.55 25.6437 138.419 25.6223Z"/>
<path d="M137.261 25.813C136.954 25.7392 136.978 25.6732 137.391 25.4543C138.069 25.0952 138.077 25.0965 137.842 25.528C137.73 25.7344 137.468 25.8624 137.261 25.813Z"/>
<path d="M104.727 20.3607C104.631 20.4806 104.434 20.4631 104.29 20.3215C104.131 20.1652 104.2 20.0796 104.465 20.1034C104.706 20.1251 104.823 20.2408 104.727 20.3607Z"/>
<path d="M99.5749 20.4975C99.5202 20.4885 99.4422 20.2919 99.4013 20.0605C99.3605 19.829 99.4346 19.6573 99.5658 19.6787C99.697 19.7001 99.7752 19.8968 99.7394 20.1157C99.7036 20.3346 99.6297 20.5064 99.5749 20.4975Z"/>
<path d="M64.6912 19.2893C64.56 19.2679 64.5445 19.0814 64.6569 18.8751C64.7693 18.6687 64.9059 18.5071 64.9606 18.5161C65.0154 18.525 65.0307 18.7114 64.9949 18.9303C64.9591 19.1492 64.8224 19.3108 64.6912 19.2893Z"/>
<path d="M54.5629 19.6766C54.3698 19.645 54.3035 19.4503 54.4159 19.2439C54.5283 19.0376 54.7156 18.8843 54.8323 18.9034C54.949 18.9225 55.0151 19.1172 54.9793 19.3361C54.9435 19.555 54.756 19.7082 54.5629 19.6766Z"/>
<path d="M49.8836 19.7227C49.5473 19.6624 49.5485 19.6038 49.8913 19.3215C50.396 18.9055 50.4214 18.9096 50.342 19.3952C50.3062 19.6141 50.0998 19.7614 49.8836 19.7227Z"/>
<path d="M129.767 32.5368C129.596 32.3748 129.467 32.1719 129.481 32.086C129.534 31.7636 129.934 32.0149 130.004 32.415C130.046 32.6532 129.945 32.7053 129.767 32.5368Z"/>
<path d="M47.651 19.2257C47.4781 19.3111 47.2246 19.2696 47.0876 19.1336C46.9508 18.9981 47.0923 18.9284 47.4021 18.9791C47.712 19.0298 47.8241 19.1408 47.651 19.2257Z"/>
<path d="M44.864 20.3356C44.7633 20.1818 44.7084 19.8876 44.7421 19.6815C44.8357 19.1091 44.9766 19.2617 45.0138 19.9756C45.0327 20.3424 44.9688 20.4958 44.864 20.3356Z"/>
<path d="M127.315 34.0149C127.345 33.8326 127.56 33.6304 127.793 33.5655C128.026 33.5011 128.246 33.4316 128.281 33.4112C128.317 33.3908 128.319 33.5326 128.288 33.7256C128.256 33.9191 128.012 34.1378 127.745 34.2119C127.479 34.2856 127.285 34.1972 127.315 34.0149Z"/>
<path d="M34.7094 20.1085C34.5782 20.0871 34.5626 19.9006 34.675 19.6943C34.7875 19.4879 34.924 19.3263 34.9788 19.3353C35.0335 19.3442 35.0489 19.5306 35.0131 19.7495C34.9773 19.9684 34.8405 20.13 34.7094 20.1085Z"/>
<path d="M27.2157 20.3561C27.1193 20.476 26.9224 20.4585 26.7788 20.3169C26.6197 20.1606 26.6885 20.075 26.9542 20.0988C27.1945 20.1205 27.3121 20.2362 27.2157 20.3561Z"/>
<path d="M17.1377 21.5264C16.4703 21.638 16.8818 21.0441 17.5921 20.8705C17.8572 20.8055 18.1232 20.7395 18.183 20.7231C18.2428 20.7068 18.1581 20.86 17.9949 21.063C17.8314 21.2664 17.4456 21.475 17.1377 21.5264Z"/>
<path d="M18.433 22.1579C18.3356 22.0091 18.356 21.6337 18.4784 21.3239C18.7916 20.5305 18.9011 20.6477 18.7439 21.6088C18.6703 22.0594 18.5303 22.3066 18.433 22.1579Z"/>
<path d="M10.3378 22.2536C10.2294 22.2359 10.2133 21.7768 10.3021 21.2335C10.3909 20.6902 10.5365 20.3573 10.6256 20.4932C10.7146 20.6296 10.7308 21.0882 10.6613 21.5133C10.5918 21.9384 10.4462 22.2713 10.3378 22.2536Z"/>
<path d="M8.67935 21.4647C8.62646 21.3212 8.6996 20.9899 8.84208 20.7284C9.05043 20.3456 9.10361 20.3543 9.11367 20.7711C9.12839 21.3661 8.82281 21.8539 8.67935 21.4647Z"/>
<path d="M9.59945 21.553C9.47244 21.209 9.38547 20.8254 9.40596 20.7C9.51268 20.0473 10.0087 20.6886 9.92664 21.3732C9.84258 22.0742 9.7999 22.0974 9.59945 21.553Z"/>
<path d="M15.1901 22.1173C14.9476 22.0437 14.7704 21.8537 14.7964 21.6949C14.8223 21.5365 15.042 21.4666 15.2845 21.5402C15.527 21.6137 15.7041 21.8037 15.6782 21.9625C15.6523 22.1209 15.4326 22.1908 15.1901 22.1173Z"/>
<path d="M7.24745 23.9959C7.10138 24.111 7.01291 24.0152 7.05079 23.7836C7.08866 23.5519 7.22111 23.3786 7.34505 23.3989C7.469 23.4192 7.55753 23.5145 7.54171 23.6113C7.5259 23.708 7.39352 23.8809 7.24745 23.9959Z"/>
</mask>
<path d="M115.841 19.3576C116.247 18.7041 116.719 17.9848 116.889 17.7588C117.292 17.2219 118.183 17.4713 118.217 18.1308C118.232 18.4144 118.475 18.6894 118.756 18.7428C119.664 18.9142 119.832 19.7388 119.42 22.0143C119.087 23.8559 119.093 24.0531 119.471 23.6572C119.853 23.2582 119.85 23.3 119.452 24.0272C119.205 24.478 118.942 24.7529 118.866 24.638C118.791 24.5227 118.686 24.7932 118.632 25.2388C118.516 26.2075 118.697 26.2981 119.222 25.5335C119.435 25.223 119.765 25.033 119.956 25.1116C120.37 25.2826 122.211 24.1882 122.287 23.7265C122.316 23.5482 122.467 23.4217 122.622 23.4458C122.777 23.4696 123.223 23.2793 123.613 23.0226C124.063 22.7263 124.348 22.7093 124.395 22.9753C124.442 23.2378 124.643 23.211 124.932 22.9048C125.688 22.1017 127.6 21.3371 127.366 21.9309C127.229 22.2768 127.337 22.4015 127.718 22.3387C128.065 22.2815 128.391 22.5815 128.601 23.1525C128.874 23.8926 128.863 24.2386 128.542 25.0561C128.327 25.6056 128.181 26.2287 128.218 26.4408C128.255 26.6528 128.191 26.8106 128.074 26.7915C127.957 26.7724 127.743 27.1514 127.599 27.6333C127.455 28.1152 127.11 29.0633 126.833 29.7401C126.294 31.0577 126.316 31.6992 126.884 31.2466C127.077 31.0934 127.383 30.9533 127.564 30.9355C127.745 30.9173 128.011 30.6855 128.156 30.4194C128.301 30.1538 128.471 30.0757 128.534 30.2462C128.596 30.4166 128.81 30.385 129.009 30.1764C129.208 29.9674 129.659 29.7878 130.012 29.7773C130.365 29.7672 130.724 29.5651 130.81 29.3287C130.896 29.0923 131.114 28.9231 131.294 28.9525C131.474 28.9819 131.918 28.7575 132.281 28.454C132.645 28.1505 132.919 28.0397 132.892 28.2085C132.864 28.3769 133.065 28.2626 133.338 27.9538C133.843 27.3841 136.511 26.034 136.608 26.2993C136.709 26.5719 136.164 27.7055 135.949 27.6704C135.831 27.6511 135.827 27.4665 135.939 27.2601C136.051 27.0537 136.036 26.8673 135.905 26.8459C135.774 26.8244 135.623 27.0699 135.571 27.3915C135.508 27.7732 135.359 27.8666 135.142 27.6606C134.949 27.4788 134.838 27.5174 134.88 27.7522C134.919 27.9761 134.805 28.4024 134.625 28.6995C134.359 29.1399 134.344 29.1148 134.54 28.5638C134.672 28.1923 134.682 27.8719 134.562 27.8523C134.442 27.8327 134.321 27.9563 134.293 28.1275C134.228 28.5239 132.715 29.2217 132.531 28.9399C132.455 28.8236 132.291 28.9864 132.166 29.3019C131.875 30.0386 132.198 30.0812 133.187 29.4361C133.62 29.1535 134.007 29.0096 134.047 29.117C134.086 29.2244 133.656 29.5999 133.091 29.9512C132.348 30.4129 132.014 30.4585 131.888 30.1154C131.761 29.7727 131.627 29.7961 131.403 30.1996C131.233 30.5073 131.117 30.5786 131.145 30.3585C131.173 30.1383 130.96 30.4712 130.67 31.0981C130.38 31.725 130.244 31.9324 130.367 31.5593C130.489 31.1862 130.491 30.8645 130.371 30.8449C130.251 30.8253 130.12 31.0106 130.08 31.257C130.033 31.5407 129.776 31.5785 129.378 31.36C129.032 31.1702 128.66 31.1785 128.551 31.3781C128.442 31.5778 128.526 31.7691 128.736 31.8036C129.128 31.8676 129.542 33.0402 129.425 33.7551C129.389 33.974 129.272 33.7983 129.165 33.3652C129.057 32.9316 128.842 32.6773 128.686 32.8002C128.53 32.9226 128.43 32.8528 128.464 32.6443C128.567 32.019 127.963 31.6743 127.299 31.9784C126.68 32.2617 126.324 33.0438 126.781 33.1185C126.912 33.1399 126.99 32.9896 126.954 32.7847C126.866 32.2865 127.737 32.0652 128.029 32.5114C128.297 32.92 127.437 33.6344 126.802 33.5306C126.49 33.4795 126.455 33.5829 126.605 34.1113C126.706 34.4649 126.748 34.7627 126.699 34.7731C126.65 34.7835 126.293 34.8293 125.906 34.8744C125.519 34.9199 125.09 35.1566 124.953 35.4001C124.785 35.6968 124.705 35.5398 124.709 34.9252C124.714 34.4204 124.627 33.9923 124.518 33.9744C124.409 33.9565 124.381 33.7223 124.457 33.4536C124.532 33.1852 124.423 32.9855 124.214 33.0102C123.904 33.0469 123.899 32.6979 124.188 31.1114C124.459 29.625 124.465 29.0468 124.211 28.6547C123.946 28.2465 123.859 28.2641 123.781 28.7425C123.693 29.2802 123.528 29.3923 123.094 29.2117C123.018 29.18 122.833 29.378 122.684 29.6519C122.535 29.9258 122.279 30.1471 122.115 30.1444C121.951 30.1413 121.635 30.1375 121.413 30.1354C121.19 30.133 120.961 30.4204 120.903 30.7734C120.824 31.2606 120.642 31.347 120.151 31.1302C119.747 30.9518 119.475 31.0192 119.428 31.3086C119.326 31.9303 118.16 32.5647 117.78 32.2051C117.613 32.0475 117.449 32.0869 117.416 32.2926C117.382 32.4988 117.202 32.6423 117.016 32.6119C116.831 32.5815 116.713 32.3465 116.755 32.0898C116.797 31.8331 116.611 31.3773 116.342 31.0775C115.94 30.6297 115.835 30.6371 115.756 31.1203C115.703 31.4442 115.812 31.7338 115.998 31.7642C116.184 31.7946 116.307 31.9986 116.271 32.2175C116.18 32.7751 115.21 32.5551 114.977 31.9242C114.705 31.1849 114.824 30.7569 115.285 30.8181C115.63 30.8635 115.633 30.8034 115.304 30.352C114.78 29.6337 114.779 29.6286 115.024 29.1791C115.175 28.901 115.354 28.925 115.607 29.2566C115.902 29.6435 115.966 29.6148 115.94 29.1079C115.916 28.6528 115.573 28.4254 114.692 28.2814C113.326 28.0581 113.103 28.0939 113.113 28.5342C113.117 28.7036 112.861 28.7995 112.544 28.7476C112.227 28.6958 111.999 28.8296 112.037 29.0451C112.194 29.938 110.445 30.2661 110.036 29.4201C109.834 29.0008 109.787 29.0733 109.774 29.8272C109.762 30.5399 109.663 30.7284 109.329 30.6738C109.093 30.6352 108.928 30.4301 108.963 30.2179C108.997 30.0062 108.875 29.9024 108.69 29.9879C108.299 30.1687 108.053 29.4514 107.976 27.9047C107.931 27.0015 107.973 26.8544 108.213 27.0812C108.373 27.2329 108.534 27.1798 108.569 26.9633C108.694 26.1975 107.564 25.9768 106.933 26.6434C106.338 27.2712 106.332 27.2968 106.765 27.3867C107.132 27.4632 107.142 27.5366 106.815 27.7999C106.521 28.0367 106.373 27.8584 106.246 27.1148L106.075 26.1101L105.68 26.9377C105.418 27.4893 105.117 27.702 104.78 27.5754C104.243 27.3744 103.478 27.9628 103.573 28.5035C103.664 29.0202 102.38 29.1004 101.156 28.6543C100.391 28.3752 99.8844 28.3908 99.5883 28.7016C99.2308 29.0772 99.1331 29.062 99.0548 28.6177C98.9872 28.2347 98.892 28.1967 98.7327 28.489C98.3935 29.1119 97.8191 28.8848 97.6009 28.0412C97.4202 27.3435 97.4094 27.3463 97.4348 28.0852C97.4549 28.6655 97.3861 28.805 97.1762 28.6097C96.3319 27.8243 95.962 27.6523 95.9025 28.0165C95.8661 28.239 95.2647 28.3155 94.5439 28.1887C93.8324 28.0642 92.6221 27.9844 91.8541 28.0121C91.0861 28.0394 90.0008 27.9903 89.4425 27.9022C88.8842 27.8146 88.2609 27.9162 88.0576 28.1282C87.8334 28.3616 87.6518 28.3569 87.5968 28.1162C87.4533 27.4896 85.8054 27.3407 85.8375 27.9569C85.8698 28.5804 83.9172 28.3764 83.8057 27.7448C83.7667 27.5235 83.5693 27.4189 83.3673 27.5125C83.1608 27.6079 83.0367 27.4569 83.0842 27.1667C83.1317 26.8762 82.8797 27.0332 82.5066 27.5267C81.9203 28.3017 81.8489 28.3198 81.8829 27.6842C81.9149 27.0867 81.8496 27.0421 81.4914 27.4184C81.0344 27.8986 80.0665 27.9651 77.6784 27.6809C76.867 27.5846 76.1247 27.63 76.029 27.7823C75.9333 27.9342 74.806 27.9824 73.5242 27.8889C71.5 27.741 71.2071 27.6359 71.2967 27.0883C71.3904 26.5147 71.3583 26.5091 70.9435 27.0252C70.4545 27.633 70.0356 27.7255 70.1204 27.2069C70.2031 26.701 68.7584 26.6724 68.0557 27.166C67.5727 27.5051 67.4119 27.4956 67.4027 27.1267C67.394 26.7681 67.2259 26.7749 66.774 27.1526C66.3098 27.5406 65.9913 27.5469 65.4873 27.1785C64.7588 26.6466 64.3065 26.7893 64.4337 27.5117C64.4853 27.8033 64.4267 27.8346 64.2719 27.598C63.9415 27.0933 62.9895 26.7684 63.0631 27.1855C63.1551 27.708 62.2201 27.8343 62.0322 27.3246C61.9164 27.0102 61.7543 26.9878 61.5032 27.2516C61.3043 27.4606 60.8086 27.5349 60.4016 27.416C59.9833 27.2941 59.5822 27.4022 59.4784 27.6647C59.356 27.9749 59.1108 27.9957 58.7402 27.7267C58.3403 27.4366 57.9075 27.517 57.1916 28.0133C56.3605 28.5897 56.1809 28.6053 56.0933 28.1092C56.0054 27.6098 55.8746 27.583 55.267 27.9385C54.8699 28.1707 54.1252 28.3812 53.6122 28.4056C53.0991 28.43 52.5041 28.5669 52.2899 28.7092C51.8741 28.9857 49.7814 29.2594 49.5158 29.0721C49.4283 29.0104 49.4111 28.7955 49.4776 28.5943C49.552 28.3699 49.4224 28.343 49.1418 28.5251C48.8907 28.688 48.58 28.7275 48.4514 28.6125C48.3228 28.4975 48.1206 28.5813 48.0024 28.7986C47.6844 29.3824 47.3485 29.2139 47.4607 28.5273C47.5144 28.199 47.4062 27.9054 47.2203 27.875C47.0344 27.8446 46.8383 28.0884 46.7846 28.4168C46.6954 28.9625 46.2025 29.1585 45.671 28.86C44.9394 28.449 43.6296 28.2512 43.2618 28.4963C42.975 28.6872 42.8175 28.6116 42.7962 28.2722C42.7756 27.9477 42.7187 27.9948 42.6408 28.4005C42.5459 28.8945 42.3149 28.9867 41.631 28.8038C41.1433 28.6734 40.7211 28.7086 40.6927 28.8821C40.6387 29.2125 39.6268 28.8121 39.3162 28.3371C39.209 28.1737 39.1748 28.2837 39.2321 28.6082C39.3049 29.0209 39.189 29.0813 38.7596 28.8533C38.4466 28.6873 38.1108 28.6978 38.0136 28.8764C37.9163 29.055 37.6482 29.1706 37.4179 29.1329C37.1878 29.0953 36.9352 29.2408 36.8569 29.4564C36.764 29.7121 36.3661 29.6663 35.7097 29.324C35.1571 29.0355 34.6317 28.8907 34.5422 29.0024C34.4525 29.1136 34.237 29.2177 34.0629 29.2338C33.8888 29.2498 33.5194 29.3451 33.2422 29.4461C32.9012 29.5702 32.7042 29.3982 32.6337 28.9151C32.5398 28.2696 32.5014 28.2805 32.2377 29.0261C32.0028 29.6901 31.8105 29.798 31.2523 29.5781C30.8707 29.4278 29.7393 29.5395 28.7381 29.8257C27.7368 30.1124 26.4478 30.363 25.8735 30.3827C25.2992 30.4028 24.6137 30.5649 24.3503 30.7434C24.0868 30.9218 23.7411 30.9445 23.5818 30.7938C23.3151 30.5414 21.0176 31.3231 20.0209 32.0052C19.7867 32.1655 19.3968 32.1627 19.1542 31.9988C18.9119 31.8349 18.683 31.8878 18.6457 32.1163C18.6083 32.3451 17.974 32.5634 17.2359 32.6017C16.498 32.64 15.8242 32.7804 15.7388 32.9135C15.3925 33.4535 13.6522 33.7951 13.4504 33.3624C13.3104 33.0625 13.1797 33.0918 13.0363 33.4553C12.921 33.7474 12.4757 34.0494 12.0471 34.1264C11.6183 34.203 11.069 34.4834 10.8264 34.7486C10.0298 35.6204 8.96222 35.8099 8.07137 35.2385C7.02704 34.5684 7.01315 34.5359 7.48249 33.8517C7.72211 33.5026 7.77659 33.277 7.62695 33.2525C7.49535 33.231 7.29547 33.3822 7.18306 33.5886C6.84176 34.2157 6.54257 33.944 6.49684 32.9656C6.46982 32.3879 6.55988 31.9531 6.73624 31.8099C6.92881 31.6538 6.95786 31.3671 6.82785 30.9099C6.72298 30.5409 6.54373 30.3126 6.42929 30.4026C6.04232 30.7075 6.16016 29.4334 6.58439 28.7251C6.92301 28.1597 6.9724 27.8789 6.83548 27.2954C6.74177 26.8964 6.58007 26.6754 6.47609 26.8047C6.37212 26.934 6.32379 26.815 6.36875 26.5399C6.47899 25.8657 7.99575 23.9094 8.18461 24.1978C8.26716 24.3241 8.50845 23.9847 8.72064 23.444C9.04889 22.608 9.24599 22.4838 10.0377 22.6132C10.7469 22.7291 10.9617 22.6265 10.9385 22.1839C10.9142 21.7128 11.0335 21.6935 11.5653 22.082C12.3729 22.6717 12.3236 22.6674 12.4067 22.1591C12.4446 21.9275 12.3561 21.8317 12.2101 21.9467C12.064 22.0618 12.004 21.7917 12.0768 21.3463C12.1923 20.6398 12.2754 20.5987 12.7276 21.0228C13.0127 21.2901 13.3483 21.4283 13.4731 21.3302C13.5981 21.2318 13.6257 21.5105 13.5346 21.95C13.3489 22.844 13.0685 22.9698 13.019 22.1812C12.9959 21.8092 12.9602 21.7964 12.8915 22.1362C12.7584 22.7944 13.0569 23.1571 13.5455 22.9309C13.7723 22.8258 13.9447 22.4857 13.9287 22.175C13.9126 21.8643 14.0071 21.6276 14.1387 21.6491C14.2703 21.6706 14.3725 22.0531 14.3658 22.499C14.359 22.945 14.4635 23.2232 14.5976 23.1176C14.732 23.0117 15.1769 22.8192 15.5864 22.6892C16.2236 22.4873 16.2783 22.5306 15.9645 22.988C15.6692 23.4183 15.6691 23.5339 15.9636 23.582C16.1646 23.6149 16.382 23.3284 16.4464 22.9458C16.5363 22.413 16.5882 22.3814 16.6675 22.812C16.75 23.2582 16.8244 23.2393 17.0297 22.7192C17.2276 22.2183 17.4421 22.1487 17.9424 22.423C18.4736 22.7146 18.6412 22.6402 18.8366 22.0286C19.0357 21.4052 19.1353 21.3659 19.4156 21.7987C19.602 22.0867 19.6807 22.4571 19.5908 22.6222C19.3675 23.0324 19.7065 23.042 20.1951 22.6393C20.4625 22.419 20.5025 22.2915 20.3155 22.2565C19.8666 22.1733 20.103 21.5143 20.6348 21.3667C20.9016 21.2927 21.043 21.3734 20.9488 21.5464C20.8545 21.7193 20.8572 21.9821 20.9543 22.1308C21.0515 22.2795 21.2818 22.1034 21.4659 21.7404C21.782 21.1158 21.8194 21.1252 22.147 21.9066C22.3376 22.3611 22.5248 22.542 22.563 22.3084C22.6012 22.0748 23.0578 21.8291 23.5778 21.7621C24.0978 21.6951 24.5499 21.4772 24.5826 21.2774C24.6153 21.0776 24.9015 20.9569 25.2186 21.0087C25.5456 21.0622 25.707 21.2655 25.591 21.4782C25.2669 22.0734 25.7849 21.9844 26.2882 21.3589C26.5403 21.045 26.7123 20.9881 26.6725 21.2317C26.62 21.5525 26.748 21.5722 27.1432 21.3046C27.4417 21.1025 27.7242 21.0416 27.7714 21.169C27.8755 21.4521 28.4816 20.7294 28.793 19.9512C28.9229 19.6267 28.9513 19.8974 28.859 20.5823C28.7188 21.6235 28.7402 21.6809 29.0213 21.0175C29.1995 20.5971 29.3125 20.4974 29.2727 20.7962C29.2212 21.1817 29.3924 21.2951 29.8613 21.1867C30.3519 21.0732 30.4183 21.1237 30.1185 21.3824C29.7715 21.682 29.7699 21.7414 30.1078 21.8019C30.3243 21.8406 30.5324 21.6813 30.5706 21.4477C30.6105 21.2037 30.8147 21.1619 31.0495 21.3491C31.2747 21.5285 31.4837 21.5234 31.5141 21.338C31.5445 21.1521 31.9067 20.8472 32.319 20.6601C32.7314 20.4729 33.042 20.4836 33.0094 20.6834C32.8766 21.4953 33.5686 21.0724 33.9783 20.0911C34.22 19.5124 34.3087 19.4035 34.1752 19.8491C33.9635 20.5566 34.0223 20.6509 34.6407 20.5938C35.0989 20.5518 35.3203 20.7008 35.2688 21.016C35.2249 21.2843 35.4577 21.1131 35.786 20.6364C36.3259 19.8518 36.3717 19.8417 36.2665 20.5278C36.1615 21.2123 36.2113 21.2004 36.7765 20.4069L37.4032 19.5273L37.6807 20.5375C37.8335 21.0929 37.9889 21.4403 38.0263 21.3092C38.0637 21.178 38.149 20.8956 38.2157 20.6818C38.2823 20.4679 38.3702 20.1697 38.4108 20.019C38.4514 19.8683 38.5711 19.9798 38.6768 20.2668C38.9078 20.8934 39.4301 21.0377 39.5182 20.4987C39.5528 20.287 39.4122 20.1917 39.2057 20.2871C38.9992 20.3828 38.8563 20.3011 38.8884 20.1052C38.9204 19.9094 39.1538 19.7555 39.4071 19.763C39.6702 19.7709 39.8275 20.0222 39.774 20.3489C39.7226 20.6638 39.7775 20.9645 39.8961 21.0178C40.5101 21.2927 40.67 21.2375 40.7542 20.7221C40.8049 20.412 41.0105 20.1098 41.2111 20.0506C41.5352 19.9548 41.5304 19.9839 41.1687 20.3101C40.6188 20.8058 40.9785 20.845 41.5927 20.3561C41.973 20.0534 42.2155 20.131 42.687 20.7063C43.0201 21.113 43.3693 21.3049 43.463 21.1327C43.5568 20.9609 43.5207 20.7085 43.3832 20.572C43.2256 20.4163 43.274 20.3355 43.5139 20.3543C43.7231 20.371 43.9006 20.6154 43.908 20.8973C43.9181 21.2798 44.0208 21.3109 44.3122 21.019C44.5271 20.804 44.9493 20.7141 45.2502 20.8192C45.5511 20.9248 46.1776 20.7923 46.6423 20.5246C47.2756 20.1607 47.5332 20.1631 47.6702 20.5349C47.9283 21.235 48.1959 21.2003 48.3184 20.4509C48.3861 20.0366 48.5323 19.915 48.7339 20.1057C48.9287 20.2899 49.0146 20.2276 48.9637 19.9389C48.9071 19.6183 49.0994 19.6039 49.5955 19.8922C49.9878 20.1198 50.3169 20.4703 50.3267 20.6709C50.3367 20.8712 50.4489 20.9533 50.5761 20.8531C50.7034 20.7529 50.7921 20.3772 50.7735 20.0182C50.7446 19.4606 50.8013 19.4462 51.1616 19.9186C51.4918 20.3514 51.6772 20.374 52.0121 20.0225C52.3666 19.6498 52.4596 19.7054 52.5533 20.3476C52.6603 21.0815 52.6976 21.0757 53.2488 20.2378C53.5692 19.7512 53.763 19.5945 53.6798 19.8898C53.5966 20.1851 53.6418 20.5297 53.7802 20.6553C53.9189 20.7809 54.0638 20.6898 54.1026 20.4526C54.1416 20.2138 54.5816 20.0883 55.0894 20.1714C55.5933 20.2537 56.2461 20.1582 56.5401 19.959C56.8432 19.754 56.9875 19.7575 56.8733 19.9673C56.7626 20.1707 56.8513 20.4586 57.0705 20.6068C57.362 20.804 57.4607 20.7098 57.4373 20.2569C57.4106 19.745 57.474 19.728 57.8035 20.1599C58.0654 20.5038 58.272 20.5536 58.4066 20.3063C58.5193 20.0991 59.0053 19.9943 59.4864 20.0729C59.9675 20.1516 60.4532 20.0471 60.5656 19.8407C60.8555 19.3083 61.6046 19.5031 61.6206 20.1154C61.6306 20.4975 61.7338 20.5286 62.0247 20.2379C62.4747 19.788 63.7726 19.3647 64.081 19.5671C64.7018 19.9747 65.9378 20.2393 65.9813 19.9735C66.0089 19.8043 66.3297 19.7529 66.6941 19.8591C67.0585 19.9653 67.384 19.8849 67.4176 19.6799C67.4518 19.4705 67.6505 19.5333 67.8717 19.8232C68.1593 20.2008 68.3658 20.2329 68.6412 19.9437C68.8491 19.7251 69.0471 19.7158 69.0836 19.9229C69.12 20.129 69.4895 20.3129 69.905 20.3318C70.3204 20.3507 70.7737 20.5915 70.912 20.8674C71.1047 21.2516 71.1431 21.246 71.0758 20.844C71.0187 20.5036 71.133 20.3323 71.4002 20.3568C73.7972 20.5766 76.669 20.3392 76.9225 19.9001C77.0894 19.6107 77.1398 19.6168 77.0927 19.9205C77.0557 20.158 77.3804 20.4106 77.8142 20.4815C78.3808 20.5741 78.6341 20.4329 78.7128 19.9811C78.8001 19.4825 78.8488 19.5187 78.9487 20.1558C79.0712 20.9367 79.0867 20.9396 79.5014 20.2698C79.7361 19.891 79.8923 19.8008 79.8484 20.0691C79.7896 20.4289 79.9013 20.4672 80.2731 20.2153C80.5801 20.0077 80.805 20.0277 80.8471 20.2667C80.9107 20.6277 81.7676 20.6783 82.5208 20.365C82.6926 20.2934 83.058 20.4459 83.3331 20.7038C83.6458 20.9972 83.8557 21.0324 83.8942 20.7972C83.928 20.5906 84.0752 20.5346 84.2218 20.673C84.3681 20.8113 84.781 20.7905 85.1394 20.6264C85.4978 20.4623 85.7999 20.4757 85.8106 20.6561C85.8216 20.8369 86.4474 20.8709 87.2019 20.7327C87.9563 20.5946 88.5502 20.6234 88.5217 20.7973C88.4933 20.9713 88.7514 20.9849 89.0953 20.8274C89.5499 20.6193 89.7037 20.6751 89.6586 21.0318C89.6113 21.4058 89.6432 21.4077 89.7924 21.0411C89.9003 20.7763 90.0645 20.6761 90.1576 20.8184C90.2507 20.9607 90.3507 20.9321 90.3797 20.755C90.4087 20.5779 90.8656 20.4903 91.3949 20.5605C92.5911 20.7189 93.6933 20.6004 94.1158 20.2678C94.2952 20.1263 94.5535 20.3279 94.6987 20.7223C94.8832 21.2224 95.0502 21.3175 95.2689 21.0456C95.4388 20.8343 95.8051 20.6984 96.0829 20.7439C96.3608 20.7893 96.6716 20.6726 96.7741 20.4846C96.9834 20.1003 97.3827 20.2081 97.7281 20.7419C97.8552 20.9384 98.0974 20.9898 98.2663 20.8569C98.4354 20.7239 98.9191 20.6951 99.3413 20.7932C99.7637 20.8912 100.46 20.7431 100.888 20.4633C101.317 20.1836 101.568 20.1376 101.446 20.3609C101.145 20.9151 101.377 20.9049 102.084 20.3327C102.7 19.8336 103.156 19.8938 104.123 20.6016C104.544 20.9094 104.838 20.8667 105.208 20.4455C105.488 20.1271 105.93 19.9019 106.191 19.9445C106.467 19.9897 106.779 19.6995 106.938 19.2494C107.088 18.8245 107.312 18.4932 107.435 18.5133C107.558 18.5334 107.556 18.7367 107.432 18.9653C107.275 19.2538 107.385 19.3091 107.794 19.1466C108.426 18.8948 108.902 18.9612 109.914 19.4422C110.269 19.6105 110.633 19.7812 110.724 19.8218C110.815 19.8624 110.956 20.5475 111.037 21.3445C111.177 22.7151 111.211 22.7596 111.679 22.1647C111.951 21.8185 112.152 21.3944 112.126 21.2213C112.099 21.0482 112.185 20.9245 112.316 20.946C112.447 20.9674 112.51 21.2552 112.456 21.5852C112.376 22.0763 112.45 22.1122 112.865 21.782C113.163 21.545 113.39 21.0509 113.415 20.5871C113.439 20.152 113.503 19.9186 113.558 20.0686C113.613 20.2186 113.819 20.1722 114.015 19.966C114.261 19.7079 114.486 19.7397 114.737 20.0684C115.038 20.4643 115.227 20.3427 115.841 19.3576Z" fill="#323E44"/>
<path d="M105.311 20.005C105.165 20.12 105.076 20.0242 105.114 19.7926C105.152 19.561 105.284 19.3877 105.408 19.408C105.532 19.4282 105.621 19.5236 105.605 19.6203C105.589 19.717 105.457 19.8899 105.311 20.005Z" fill="#323E44"/>
<path d="M138.419 25.6223C138.287 25.6008 138.209 25.4041 138.245 25.1852C138.281 24.9663 138.355 24.7945 138.409 24.8035C138.464 24.8124 138.542 25.0091 138.583 25.2405C138.624 25.4719 138.55 25.6437 138.419 25.6223Z" fill="#323E44"/>
<path d="M137.261 25.813C136.954 25.7392 136.978 25.6732 137.391 25.4543C138.069 25.0952 138.077 25.0965 137.842 25.528C137.73 25.7344 137.468 25.8624 137.261 25.813Z" fill="#323E44"/>
<path d="M104.727 20.3607C104.631 20.4806 104.434 20.4631 104.29 20.3215C104.131 20.1652 104.2 20.0796 104.465 20.1034C104.706 20.1251 104.823 20.2408 104.727 20.3607Z" fill="#323E44"/>
<path d="M99.5749 20.4975C99.5202 20.4885 99.4422 20.2919 99.4013 20.0605C99.3605 19.829 99.4346 19.6573 99.5658 19.6787C99.697 19.7001 99.7752 19.8968 99.7394 20.1157C99.7036 20.3346 99.6297 20.5064 99.5749 20.4975Z" fill="#323E44"/>
<path d="M64.6912 19.2893C64.56 19.2679 64.5445 19.0814 64.6569 18.8751C64.7693 18.6687 64.9059 18.5071 64.9606 18.5161C65.0154 18.525 65.0307 18.7114 64.9949 18.9303C64.9591 19.1492 64.8224 19.3108 64.6912 19.2893Z" fill="#323E44"/>
<path d="M54.5629 19.6766C54.3698 19.645 54.3035 19.4503 54.4159 19.2439C54.5283 19.0376 54.7156 18.8843 54.8323 18.9034C54.949 18.9225 55.0151 19.1172 54.9793 19.3361C54.9435 19.555 54.756 19.7082 54.5629 19.6766Z" fill="#323E44"/>
<path d="M49.8836 19.7227C49.5473 19.6624 49.5485 19.6038 49.8913 19.3215C50.396 18.9055 50.4214 18.9096 50.342 19.3952C50.3062 19.6141 50.0998 19.7614 49.8836 19.7227Z" fill="#323E44"/>
<path d="M129.767 32.5368C129.596 32.3748 129.467 32.1719 129.481 32.086C129.534 31.7636 129.934 32.0149 130.004 32.415C130.046 32.6532 129.945 32.7053 129.767 32.5368Z" fill="#323E44"/>
<path d="M47.651 19.2257C47.4781 19.3111 47.2246 19.2696 47.0876 19.1336C46.9508 18.9981 47.0923 18.9284 47.4021 18.9791C47.712 19.0298 47.8241 19.1408 47.651 19.2257Z" fill="#323E44"/>
<path d="M44.864 20.3356C44.7633 20.1818 44.7084 19.8876 44.7421 19.6815C44.8357 19.1091 44.9766 19.2617 45.0138 19.9756C45.0327 20.3424 44.9688 20.4958 44.864 20.3356Z" fill="#323E44"/>
<path d="M127.315 34.0149C127.345 33.8326 127.56 33.6304 127.793 33.5655C128.026 33.5011 128.246 33.4316 128.281 33.4112C128.317 33.3908 128.319 33.5326 128.288 33.7256C128.256 33.9191 128.012 34.1378 127.745 34.2119C127.479 34.2856 127.285 34.1972 127.315 34.0149Z" fill="#323E44"/>
<path d="M34.7094 20.1085C34.5782 20.0871 34.5626 19.9006 34.675 19.6943C34.7875 19.4879 34.924 19.3263 34.9788 19.3353C35.0335 19.3442 35.0489 19.5306 35.0131 19.7495C34.9773 19.9684 34.8405 20.13 34.7094 20.1085Z" fill="#323E44"/>
<path d="M27.2157 20.3561C27.1193 20.476 26.9224 20.4585 26.7788 20.3169C26.6197 20.1606 26.6885 20.075 26.9542 20.0988C27.1945 20.1205 27.3121 20.2362 27.2157 20.3561Z" fill="#323E44"/>
<path d="M17.1377 21.5264C16.4703 21.638 16.8818 21.0441 17.5921 20.8705C17.8572 20.8055 18.1232 20.7395 18.183 20.7231C18.2428 20.7068 18.1581 20.86 17.9949 21.063C17.8314 21.2664 17.4456 21.475 17.1377 21.5264Z" fill="#323E44"/>
<path d="M18.433 22.1579C18.3356 22.0091 18.356 21.6337 18.4784 21.3239C18.7916 20.5305 18.9011 20.6477 18.7439 21.6088C18.6703 22.0594 18.5303 22.3066 18.433 22.1579Z" fill="#323E44"/>
<path d="M10.3378 22.2536C10.2294 22.2359 10.2133 21.7768 10.3021 21.2335C10.3909 20.6902 10.5365 20.3573 10.6256 20.4932C10.7146 20.6296 10.7308 21.0882 10.6613 21.5133C10.5918 21.9384 10.4462 22.2713 10.3378 22.2536Z" fill="#323E44"/>
<path d="M8.67935 21.4647C8.62646 21.3212 8.6996 20.9899 8.84208 20.7284C9.05043 20.3456 9.10361 20.3543 9.11367 20.7711C9.12839 21.3661 8.82281 21.8539 8.67935 21.4647Z" fill="#323E44"/>
<path d="M9.59945 21.553C9.47244 21.209 9.38547 20.8254 9.40596 20.7C9.51268 20.0473 10.0087 20.6886 9.92664 21.3732C9.84258 22.0742 9.7999 22.0974 9.59945 21.553Z" fill="#323E44"/>
<path d="M15.1901 22.1173C14.9476 22.0437 14.7704 21.8537 14.7964 21.6949C14.8223 21.5365 15.042 21.4666 15.2845 21.5402C15.527 21.6137 15.7041 21.8037 15.6782 21.9625C15.6523 22.1209 15.4326 22.1908 15.1901 22.1173Z" fill="#323E44"/>
<path d="M7.24745 23.9959C7.10138 24.111 7.01291 24.0152 7.05079 23.7836C7.08866 23.5519 7.22111 23.3786 7.34505 23.3989C7.469 23.4192 7.55753 23.5145 7.54171 23.6113C7.5259 23.708 7.39352 23.8809 7.24745 23.9959Z" fill="#323E44"/>
<path d="M115.841 19.3576C116.247 18.7041 116.719 17.9848 116.889 17.7588C117.292 17.2219 118.183 17.4713 118.217 18.1308C118.232 18.4144 118.475 18.6894 118.756 18.7428C119.664 18.9142 119.832 19.7388 119.42 22.0143C119.087 23.8559 119.093 24.0531 119.471 23.6572C119.853 23.2582 119.85 23.3 119.452 24.0272C119.205 24.478 118.942 24.7529 118.866 24.638C118.791 24.5227 118.686 24.7932 118.632 25.2388C118.516 26.2075 118.697 26.2981 119.222 25.5335C119.435 25.223 119.765 25.033 119.956 25.1116C120.37 25.2826 122.211 24.1882 122.287 23.7265C122.316 23.5482 122.467 23.4217 122.622 23.4458C122.777 23.4696 123.223 23.2793 123.613 23.0226C124.063 22.7263 124.348 22.7093 124.395 22.9753C124.442 23.2378 124.643 23.211 124.932 22.9048C125.688 22.1017 127.6 21.3371 127.366 21.9309C127.229 22.2768 127.337 22.4015 127.718 22.3387C128.065 22.2815 128.391 22.5815 128.601 23.1525C128.874 23.8926 128.863 24.2386 128.542 25.0561C128.327 25.6056 128.181 26.2287 128.218 26.4408C128.255 26.6528 128.191 26.8106 128.074 26.7915C127.957 26.7724 127.743 27.1514 127.599 27.6333C127.455 28.1152 127.11 29.0633 126.833 29.7401C126.294 31.0577 126.316 31.6992 126.884 31.2466C127.077 31.0934 127.383 30.9533 127.564 30.9355C127.745 30.9173 128.011 30.6855 128.156 30.4194C128.301 30.1538 128.471 30.0757 128.534 30.2462C128.596 30.4166 128.81 30.385 129.009 30.1764C129.208 29.9674 129.659 29.7878 130.012 29.7773C130.365 29.7672 130.724 29.5651 130.81 29.3287C130.896 29.0923 131.114 28.9231 131.294 28.9525C131.474 28.9819 131.918 28.7575 132.281 28.454C132.645 28.1505 132.919 28.0397 132.892 28.2085C132.864 28.3769 133.065 28.2626 133.338 27.9538C133.843 27.3841 136.511 26.034 136.608 26.2993C136.709 26.5719 136.164 27.7055 135.949 27.6704C135.831 27.6511 135.827 27.4665 135.939 27.2601C136.051 27.0537 136.036 26.8673 135.905 26.8459C135.774 26.8244 135.623 27.0699 135.571 27.3915C135.508 27.7732 135.359 27.8666 135.142 27.6606C134.949 27.4788 134.838 27.5174 134.88 27.7522C134.919 27.9761 134.805 28.4024 134.625 28.6995C134.359 29.1399 134.344 29.1148 134.54 28.5638C134.672 28.1923 134.682 27.8719 134.562 27.8523C134.442 27.8327 134.321 27.9563 134.293 28.1275C134.228 28.5239 132.715 29.2217 132.531 28.9399C132.455 28.8236 132.291 28.9864 132.166 29.3019C131.875 30.0386 132.198 30.0812 133.187 29.4361C133.62 29.1535 134.007 29.0096 134.047 29.117C134.086 29.2244 133.656 29.5999 133.091 29.9512C132.348 30.4129 132.014 30.4585 131.888 30.1154C131.761 29.7727 131.627 29.7961 131.403 30.1996C131.233 30.5073 131.117 30.5786 131.145 30.3585C131.173 30.1383 130.96 30.4712 130.67 31.0981C130.38 31.725 130.244 31.9324 130.367 31.5593C130.489 31.1862 130.491 30.8645 130.371 30.8449C130.251 30.8253 130.12 31.0106 130.08 31.257C130.033 31.5407 129.776 31.5785 129.378 31.36C129.032 31.1702 128.66 31.1785 128.551 31.3781C128.442 31.5778 128.526 31.7691 128.736 31.8036C129.128 31.8676 129.542 33.0402 129.425 33.7551C129.389 33.974 129.272 33.7983 129.165 33.3652C129.057 32.9316 128.842 32.6773 128.686 32.8002C128.53 32.9226 128.43 32.8528 128.464 32.6443C128.567 32.019 127.963 31.6743 127.299 31.9784C126.68 32.2617 126.324 33.0438 126.781 33.1185C126.912 33.1399 126.99 32.9896 126.954 32.7847C126.866 32.2865 127.737 32.0652 128.029 32.5114C128.297 32.92 127.437 33.6344 126.802 33.5306C126.49 33.4795 126.455 33.5829 126.605 34.1113C126.706 34.4649 126.748 34.7627 126.699 34.7731C126.65 34.7835 126.293 34.8293 125.906 34.8744C125.519 34.9199 125.09 35.1566 124.953 35.4001C124.785 35.6968 124.705 35.5398 124.709 34.9252C124.714 34.4204 124.627 33.9923 124.518 33.9744C124.409 33.9565 124.381 33.7223 124.457 33.4536C124.532 33.1852 124.423 32.9855 124.214 33.0102C123.904 33.0469 123.899 32.6979 124.188 31.1114C124.459 29.625 124.465 29.0468 124.211 28.6547C123.946 28.2465 123.859 28.2641 123.781 28.7425C123.693 29.2802 123.528 29.3923 123.094 29.2117C123.018 29.18 122.833 29.378 122.684 29.6519C122.535 29.9258 122.279 30.1471 122.115 30.1444C121.951 30.1413 121.635 30.1375 121.413 30.1354C121.19 30.133 120.961 30.4204 120.903 30.7734C120.824 31.2606 120.642 31.347 120.151 31.1302C119.747 30.9518 119.475 31.0192 119.428 31.3086C119.326 31.9303 118.16 32.5647 117.78 32.2051C117.613 32.0475 117.449 32.0869 117.416 32.2926C117.382 32.4988 117.202 32.6423 117.016 32.6119C116.831 32.5815 116.713 32.3465 116.755 32.0898C116.797 31.8331 116.611 31.3773 116.342 31.0775C115.94 30.6297 115.835 30.6371 115.756 31.1203C115.703 31.4442 115.812 31.7338 115.998 31.7642C116.184 31.7946 116.307 31.9986 116.271 32.2175C116.18 32.7751 115.21 32.5551 114.977 31.9242C114.705 31.1849 114.824 30.7569 115.285 30.8181C115.63 30.8635 115.633 30.8034 115.304 30.352C114.78 29.6337 114.779 29.6286 115.024 29.1791C115.175 28.901 115.354 28.925 115.607 29.2566C115.902 29.6435 115.966 29.6148 115.94 29.1079C115.916 28.6528 115.573 28.4254 114.692 28.2814C113.326 28.0581 113.103 28.0939 113.113 28.5342C113.117 28.7036 112.861 28.7995 112.544 28.7476C112.227 28.6958 111.999 28.8296 112.037 29.0451C112.194 29.938 110.445 30.2661 110.036 29.4201C109.834 29.0008 109.787 29.0733 109.774 29.8272C109.762 30.5399 109.663 30.7284 109.329 30.6738C109.093 30.6352 108.928 30.4301 108.963 30.2179C108.997 30.0062 108.875 29.9024 108.69 29.9879C108.299 30.1687 108.053 29.4514 107.976 27.9047C107.931 27.0015 107.973 26.8544 108.213 27.0812C108.373 27.2329 108.534 27.1798 108.569 26.9633C108.694 26.1975 107.564 25.9768 106.933 26.6434C106.338 27.2712 106.332 27.2968 106.765 27.3867C107.132 27.4632 107.142 27.5366 106.815 27.7999C106.521 28.0367 106.373 27.8584 106.246 27.1148L106.075 26.1101L105.68 26.9377C105.418 27.4893 105.117 27.702 104.78 27.5754C104.243 27.3744 103.478 27.9628 103.573 28.5035C103.664 29.0202 102.38 29.1004 101.156 28.6543C100.391 28.3752 99.8844 28.3908 99.5883 28.7016C99.2308 29.0772 99.1331 29.062 99.0548 28.6177C98.9872 28.2347 98.892 28.1967 98.7327 28.489C98.3935 29.1119 97.8191 28.8848 97.6009 28.0412C97.4202 27.3435 97.4094 27.3463 97.4348 28.0852C97.4549 28.6655 97.3861 28.805 97.1762 28.6097C96.3319 27.8243 95.962 27.6523 95.9025 28.0165C95.8661 28.239 95.2647 28.3155 94.5439 28.1887C93.8324 28.0642 92.6221 27.9844 91.8541 28.0121C91.0861 28.0394 90.0008 27.9903 89.4425 27.9022C88.8842 27.8146 88.2609 27.9162 88.0576 28.1282C87.8334 28.3616 87.6518 28.3569 87.5968 28.1162C87.4533 27.4896 85.8054 27.3407 85.8375 27.9569C85.8698 28.5804 83.9172 28.3764 83.8057 27.7448C83.7667 27.5235 83.5693 27.4189 83.3673 27.5125C83.1608 27.6079 83.0367 27.4569 83.0842 27.1667C83.1317 26.8762 82.8797 27.0332 82.5066 27.5267C81.9203 28.3017 81.8489 28.3198 81.8829 27.6842C81.9149 27.0867 81.8496 27.0421 81.4914 27.4184C81.0344 27.8986 80.0665 27.9651 77.6784 27.6809C76.867 27.5846 76.1247 27.63 76.029 27.7823C75.9333 27.9342 74.806 27.9824 73.5242 27.8889C71.5 27.741 71.2071 27.6359 71.2967 27.0883C71.3904 26.5147 71.3583 26.5091 70.9435 27.0252C70.4545 27.633 70.0356 27.7255 70.1204 27.2069C70.2031 26.701 68.7584 26.6724 68.0557 27.166C67.5727 27.5051 67.4119 27.4956 67.4027 27.1267C67.394 26.7681 67.2259 26.7749 66.774 27.1526C66.3098 27.5406 65.9913 27.5469 65.4873 27.1785C64.7588 26.6466 64.3065 26.7893 64.4337 27.5117C64.4853 27.8033 64.4267 27.8346 64.2719 27.598C63.9415 27.0933 62.9895 26.7684 63.0631 27.1855C63.1551 27.708 62.2201 27.8343 62.0322 27.3246C61.9164 27.0102 61.7543 26.9878 61.5032 27.2516C61.3043 27.4606 60.8086 27.5349 60.4016 27.416C59.9833 27.2941 59.5822 27.4022 59.4784 27.6647C59.356 27.9749 59.1108 27.9957 58.7402 27.7267C58.3403 27.4366 57.9075 27.517 57.1916 28.0133C56.3605 28.5897 56.1809 28.6053 56.0933 28.1092C56.0054 27.6098 55.8746 27.583 55.267 27.9385C54.8699 28.1707 54.1252 28.3812 53.6122 28.4056C53.0991 28.43 52.5041 28.5669 52.2899 28.7092C51.8741 28.9857 49.7814 29.2594 49.5158 29.0721C49.4283 29.0104 49.4111 28.7955 49.4776 28.5943C49.552 28.3699 49.4224 28.343 49.1418 28.5251C48.8907 28.688 48.58 28.7275 48.4514 28.6125C48.3228 28.4975 48.1206 28.5813 48.0024 28.7986C47.6844 29.3824 47.3485 29.2139 47.4607 28.5273C47.5144 28.199 47.4062 27.9054 47.2203 27.875C47.0344 27.8446 46.8383 28.0884 46.7846 28.4168C46.6954 28.9625 46.2025 29.1585 45.671 28.86C44.9394 28.449 43.6296 28.2512 43.2618 28.4963C42.975 28.6872 42.8175 28.6116 42.7962 28.2722C42.7756 27.9477 42.7187 27.9948 42.6408 28.4005C42.5459 28.8945 42.3149 28.9867 41.631 28.8038C41.1433 28.6734 40.7211 28.7086 40.6927 28.8821C40.6387 29.2125 39.6268 28.8121 39.3162 28.3371C39.209 28.1737 39.1748 28.2837 39.2321 28.6082C39.3049 29.0209 39.189 29.0813 38.7596 28.8533C38.4466 28.6873 38.1108 28.6978 38.0136 28.8764C37.9163 29.055 37.6482 29.1706 37.4179 29.1329C37.1878 29.0953 36.9352 29.2408 36.8569 29.4564C36.764 29.7121 36.3661 29.6663 35.7097 29.324C35.1571 29.0355 34.6317 28.8907 34.5422 29.0024C34.4525 29.1136 34.237 29.2177 34.0629 29.2338C33.8888 29.2498 33.5194 29.3451 33.2422 29.4461C32.9012 29.5702 32.7042 29.3982 32.6337 28.9151C32.5398 28.2696 32.5014 28.2805 32.2377 29.0261C32.0028 29.6901 31.8105 29.798 31.2523 29.5781C30.8707 29.4278 29.7393 29.5395 28.7381 29.8257C27.7368 30.1124 26.4478 30.363 25.8735 30.3827C25.2992 30.4028 24.6137 30.5649 24.3503 30.7434C24.0868 30.9218 23.7411 30.9445 23.5818 30.7938C23.3151 30.5414 21.0176 31.3231 20.0209 32.0052C19.7867 32.1655 19.3968 32.1627 19.1542 31.9988C18.9119 31.8349 18.683 31.8878 18.6457 32.1163C18.6083 32.3451 17.974 32.5634 17.2359 32.6017C16.498 32.64 15.8242 32.7804 15.7388 32.9135C15.3925 33.4535 13.6522 33.7951 13.4504 33.3624C13.3104 33.0625 13.1797 33.0918 13.0363 33.4553C12.921 33.7474 12.4757 34.0494 12.0471 34.1264C11.6183 34.203 11.069 34.4834 10.8264 34.7486C10.0298 35.6204 8.96222 35.8099 8.07137 35.2385C7.02704 34.5684 7.01315 34.5359 7.48249 33.8517C7.72211 33.5026 7.77659 33.277 7.62695 33.2525C7.49535 33.231 7.29547 33.3822 7.18306 33.5886C6.84176 34.2157 6.54257 33.944 6.49684 32.9656C6.46982 32.3879 6.55988 31.9531 6.73624 31.8099C6.92881 31.6538 6.95786 31.3671 6.82785 30.9099C6.72298 30.5409 6.54373 30.3126 6.42929 30.4026C6.04232 30.7075 6.16016 29.4334 6.58439 28.7251C6.92301 28.1597 6.9724 27.8789 6.83548 27.2954C6.74177 26.8964 6.58007 26.6754 6.47609 26.8047C6.37212 26.934 6.32379 26.815 6.36875 26.5399C6.47899 25.8657 7.99575 23.9094 8.18461 24.1978C8.26716 24.3241 8.50845 23.9847 8.72064 23.444C9.04889 22.608 9.24599 22.4838 10.0377 22.6132C10.7469 22.7291 10.9617 22.6265 10.9385 22.1839C10.9142 21.7128 11.0335 21.6935 11.5653 22.082C12.3729 22.6717 12.3236 22.6674 12.4067 22.1591C12.4446 21.9275 12.3561 21.8317 12.2101 21.9467C12.064 22.0618 12.004 21.7917 12.0768 21.3463C12.1923 20.6398 12.2754 20.5987 12.7276 21.0228C13.0127 21.2901 13.3483 21.4283 13.4731 21.3302C13.5981 21.2318 13.6257 21.5105 13.5346 21.95C13.3489 22.844 13.0685 22.9698 13.019 22.1812C12.9959 21.8092 12.9602 21.7964 12.8915 22.1362C12.7584 22.7944 13.0569 23.1571 13.5455 22.9309C13.7723 22.8258 13.9447 22.4857 13.9287 22.175C13.9126 21.8643 14.0071 21.6276 14.1387 21.6491C14.2703 21.6706 14.3725 22.0531 14.3658 22.499C14.359 22.945 14.4635 23.2232 14.5976 23.1176C14.732 23.0117 15.1769 22.8192 15.5864 22.6892C16.2236 22.4873 16.2783 22.5306 15.9645 22.988C15.6692 23.4183 15.6691 23.5339 15.9636 23.582C16.1646 23.6149 16.382 23.3284 16.4464 22.9458C16.5363 22.413 16.5882 22.3814 16.6675 22.812C16.75 23.2582 16.8244 23.2393 17.0297 22.7192C17.2276 22.2183 17.4421 22.1487 17.9424 22.423C18.4736 22.7146 18.6412 22.6402 18.8366 22.0286C19.0357 21.4052 19.1353 21.3659 19.4156 21.7987C19.602 22.0867 19.6807 22.4571 19.5908 22.6222C19.3675 23.0324 19.7065 23.042 20.1951 22.6393C20.4625 22.419 20.5025 22.2915 20.3155 22.2565C19.8666 22.1733 20.103 21.5143 20.6348 21.3667C20.9016 21.2927 21.043 21.3734 20.9488 21.5464C20.8545 21.7193 20.8572 21.9821 20.9543 22.1308C21.0515 22.2795 21.2818 22.1034 21.4659 21.7404C21.782 21.1158 21.8194 21.1252 22.147 21.9066C22.3376 22.3611 22.5248 22.542 22.563 22.3084C22.6012 22.0748 23.0578 21.8291 23.5778 21.7621C24.0978 21.6951 24.5499 21.4772 24.5826 21.2774C24.6153 21.0776 24.9015 20.9569 25.2186 21.0087C25.5456 21.0622 25.707 21.2655 25.591 21.4782C25.2669 22.0734 25.7849 21.9844 26.2882 21.3589C26.5403 21.045 26.7123 20.9881 26.6725 21.2317C26.62 21.5525 26.748 21.5722 27.1432 21.3046C27.4417 21.1025 27.7242 21.0416 27.7714 21.169C27.8755 21.4521 28.4816 20.7294 28.793 19.9512C28.9229 19.6267 28.9513 19.8974 28.859 20.5823C28.7188 21.6235 28.7402 21.6809 29.0213 21.0175C29.1995 20.5971 29.3125 20.4974 29.2727 20.7962C29.2212 21.1817 29.3924 21.2951 29.8613 21.1867C30.3519 21.0732 30.4183 21.1237 30.1185 21.3824C29.7715 21.682 29.7699 21.7414 30.1078 21.8019C30.3243 21.8406 30.5324 21.6813 30.5706 21.4477C30.6105 21.2037 30.8147 21.1619 31.0495 21.3491C31.2747 21.5285 31.4837 21.5234 31.5141 21.338C31.5445 21.1521 31.9067 20.8472 32.319 20.6601C32.7314 20.4729 33.042 20.4836 33.0094 20.6834C32.8766 21.4953 33.5686 21.0724 33.9783 20.0911C34.22 19.5124 34.3087 19.4035 34.1752 19.8491C33.9635 20.5566 34.0223 20.6509 34.6407 20.5938C35.0989 20.5518 35.3203 20.7008 35.2688 21.016C35.2249 21.2843 35.4577 21.1131 35.786 20.6364C36.3259 19.8518 36.3717 19.8417 36.2665 20.5278C36.1615 21.2123 36.2113 21.2004 36.7765 20.4069L37.4032 19.5273L37.6807 20.5375C37.8335 21.0929 37.9889 21.4403 38.0263 21.3092C38.0637 21.178 38.149 20.8956 38.2157 20.6818C38.2823 20.4679 38.3702 20.1697 38.4108 20.019C38.4514 19.8683 38.5711 19.9798 38.6768 20.2668C38.9078 20.8934 39.4301 21.0377 39.5182 20.4987C39.5528 20.287 39.4122 20.1917 39.2057 20.2871C38.9992 20.3828 38.8563 20.3011 38.8884 20.1052C38.9204 19.9094 39.1538 19.7555 39.4071 19.763C39.6702 19.7709 39.8275 20.0222 39.774 20.3489C39.7226 20.6638 39.7775 20.9645 39.8961 21.0178C40.5101 21.2927 40.67 21.2375 40.7542 20.7221C40.8049 20.412 41.0105 20.1098 41.2111 20.0506C41.5352 19.9548 41.5304 19.9839 41.1687 20.3101C40.6188 20.8058 40.9785 20.845 41.5927 20.3561C41.973 20.0534 42.2155 20.131 42.687 20.7063C43.0201 21.113 43.3693 21.3049 43.463 21.1327C43.5568 20.9609 43.5207 20.7085 43.3832 20.572C43.2256 20.4163 43.274 20.3355 43.5139 20.3543C43.7231 20.371 43.9006 20.6154 43.908 20.8973C43.9181 21.2798 44.0208 21.3109 44.3122 21.019C44.5271 20.804 44.9493 20.7141 45.2502 20.8192C45.5511 20.9248 46.1776 20.7923 46.6423 20.5246C47.2756 20.1607 47.5332 20.1631 47.6702 20.5349C47.9283 21.235 48.1959 21.2003 48.3184 20.4509C48.3861 20.0366 48.5323 19.915 48.7339 20.1057C48.9287 20.2899 49.0146 20.2276 48.9637 19.9389C48.9071 19.6183 49.0994 19.6039 49.5955 19.8922C49.9878 20.1198 50.3169 20.4703 50.3267 20.6709C50.3367 20.8712 50.4489 20.9533 50.5761 20.8531C50.7034 20.7529 50.7921 20.3772 50.7735 20.0182C50.7446 19.4606 50.8013 19.4462 51.1616 19.9186C51.4918 20.3514 51.6772 20.374 52.0121 20.0225C52.3666 19.6498 52.4596 19.7054 52.5533 20.3476C52.6603 21.0815 52.6976 21.0757 53.2488 20.2378C53.5692 19.7512 53.763 19.5945 53.6798 19.8898C53.5966 20.1851 53.6418 20.5297 53.7802 20.6553C53.9189 20.7809 54.0638 20.6898 54.1026 20.4526C54.1416 20.2138 54.5816 20.0883 55.0894 20.1714C55.5933 20.2537 56.2461 20.1582 56.5401 19.959C56.8432 19.754 56.9875 19.7575 56.8733 19.9673C56.7626 20.1707 56.8513 20.4586 57.0705 20.6068C57.362 20.804 57.4607 20.7098 57.4373 20.2569C57.4106 19.745 57.474 19.728 57.8035 20.1599C58.0654 20.5038 58.272 20.5536 58.4066 20.3063C58.5193 20.0991 59.0053 19.9943 59.4864 20.0729C59.9675 20.1516 60.4532 20.0471 60.5656 19.8407C60.8555 19.3083 61.6046 19.5031 61.6206 20.1154C61.6306 20.4975 61.7338 20.5286 62.0247 20.2379C62.4747 19.788 63.7726 19.3647 64.081 19.5671C64.7018 19.9747 65.9378 20.2393 65.9813 19.9735C66.0089 19.8043 66.3297 19.7529 66.6941 19.8591C67.0585 19.9653 67.384 19.8849 67.4176 19.6799C67.4518 19.4705 67.6505 19.5333 67.8717 19.8232C68.1593 20.2008 68.3658 20.2329 68.6412 19.9437C68.8491 19.7251 69.0471 19.7158 69.0836 19.9229C69.12 20.129 69.4895 20.3129 69.905 20.3318C70.3204 20.3507 70.7737 20.5915 70.912 20.8674C71.1047 21.2516 71.1431 21.246 71.0758 20.844C71.0187 20.5036 71.133 20.3323 71.4002 20.3568C73.7972 20.5766 76.669 20.3392 76.9225 19.9001C77.0894 19.6107 77.1398 19.6168 77.0927 19.9205C77.0557 20.158 77.3804 20.4106 77.8142 20.4815C78.3808 20.5741 78.6341 20.4329 78.7128 19.9811C78.8001 19.4825 78.8488 19.5187 78.9487 20.1558C79.0712 20.9367 79.0867 20.9396 79.5014 20.2698C79.7361 19.891 79.8923 19.8008 79.8484 20.0691C79.7896 20.4289 79.9013 20.4672 80.2731 20.2153C80.5801 20.0077 80.805 20.0277 80.8471 20.2667C80.9107 20.6277 81.7676 20.6783 82.5208 20.365C82.6926 20.2934 83.058 20.4459 83.3331 20.7038C83.6458 20.9972 83.8557 21.0324 83.8942 20.7972C83.928 20.5906 84.0752 20.5346 84.2218 20.673C84.3681 20.8113 84.781 20.7905 85.1394 20.6264C85.4978 20.4623 85.7999 20.4757 85.8106 20.6561C85.8216 20.8369 86.4474 20.8709 87.2019 20.7327C87.9563 20.5946 88.5502 20.6234 88.5217 20.7973C88.4933 20.9713 88.7514 20.9849 89.0953 20.8274C89.5499 20.6193 89.7037 20.6751 89.6586 21.0318C89.6113 21.4058 89.6432 21.4077 89.7924 21.0411C89.9003 20.7763 90.0645 20.6761 90.1576 20.8184C90.2507 20.9607 90.3507 20.9321 90.3797 20.755C90.4087 20.5779 90.8656 20.4903 91.3949 20.5605C92.5911 20.7189 93.6933 20.6004 94.1158 20.2678C94.2952 20.1263 94.5535 20.3279 94.6987 20.7223C94.8832 21.2224 95.0502 21.3175 95.2689 21.0456C95.4388 20.8343 95.8051 20.6984 96.0829 20.7439C96.3608 20.7893 96.6716 20.6726 96.7741 20.4846C96.9834 20.1003 97.3827 20.2081 97.7281 20.7419C97.8552 20.9384 98.0974 20.9898 98.2663 20.8569C98.4354 20.7239 98.9191 20.6951 99.3413 20.7932C99.7637 20.8912 100.46 20.7431 100.888 20.4633C101.317 20.1836 101.568 20.1376 101.446 20.3609C101.145 20.9151 101.377 20.9049 102.084 20.3327C102.7 19.8336 103.156 19.8938 104.123 20.6016C104.544 20.9094 104.838 20.8667 105.208 20.4455C105.488 20.1271 105.93 19.9019 106.191 19.9445C106.467 19.9897 106.779 19.6995 106.938 19.2494C107.088 18.8245 107.312 18.4932 107.435 18.5133C107.558 18.5334 107.556 18.7367 107.432 18.9653C107.275 19.2538 107.385 19.3091 107.794 19.1466C108.426 18.8948 108.902 18.9612 109.914 19.4422C110.269 19.6105 110.633 19.7812 110.724 19.8218C110.815 19.8624 110.956 20.5475 111.037 21.3445C111.177 22.7151 111.211 22.7596 111.679 22.1647C111.951 21.8185 112.152 21.3944 112.126 21.2213C112.099 21.0482 112.185 20.9245 112.316 20.946C112.447 20.9674 112.51 21.2552 112.456 21.5852C112.376 22.0763 112.45 22.1122 112.865 21.782C113.163 21.545 113.39 21.0509 113.415 20.5871C113.439 20.152 113.503 19.9186 113.558 20.0686C113.613 20.2186 113.819 20.1722 114.015 19.966C114.261 19.7079 114.486 19.7397 114.737 20.0684C115.038 20.4643 115.227 20.3427 115.841 19.3576Z" stroke="#F2F3F4" stroke-width="11.275" mask="url(#path-1-outside-1_1326_2465)"/>
<path d="M105.311 20.005C105.165 20.12 105.076 20.0242 105.114 19.7926C105.152 19.561 105.284 19.3877 105.408 19.408C105.532 19.4282 105.621 19.5236 105.605 19.6203C105.589 19.717 105.457 19.8899 105.311 20.005Z" stroke="#F2F3F4" stroke-width="11.275" mask="url(#path-1-outside-1_1326_2465)"/>
<path d="M138.419 25.6223C138.287 25.6008 138.209 25.4041 138.245 25.1852C138.281 24.9663 138.355 24.7945 138.409 24.8035C138.464 24.8124 138.542 25.0091 138.583 25.2405C138.624 25.4719 138.55 25.6437 138.419 25.6223Z" stroke="#F2F3F4" stroke-width="11.275" mask="url(#path-1-outside-1_1326_2465)"/>
<path d="M137.261 25.813C136.954 25.7392 136.978 25.6732 137.391 25.4543C138.069 25.0952 138.077 25.0965 137.842 25.528C137.73 25.7344 137.468 25.8624 137.261 25.813Z" stroke="#F2F3F4" stroke-width="11.275" mask="url(#path-1-outside-1_1326_2465)"/>
<path d="M104.727 20.3607C104.631 20.4806 104.434 20.4631 104.29 20.3215C104.131 20.1652 104.2 20.0796 104.465 20.1034C104.706 20.1251 104.823 20.2408 104.727 20.3607Z" stroke="#F2F3F4" stroke-width="11.275" mask="url(#path-1-outside-1_1326_2465)"/>
<path d="M99.5749 20.4975C99.5202 20.4885 99.4422 20.2919 99.4013 20.0605C99.3605 19.829 99.4346 19.6573 99.5658 19.6787C99.697 19.7001 99.7752 19.8968 99.7394 20.1157C99.7036 20.3346 99.6297 20.5064 99.5749 20.4975Z" stroke="#F2F3F4" stroke-width="11.275" mask="url(#path-1-outside-1_1326_2465)"/>
<path d="M64.6912 19.2893C64.56 19.2679 64.5445 19.0814 64.6569 18.8751C64.7693 18.6687 64.9059 18.5071 64.9606 18.5161C65.0154 18.525 65.0307 18.7114 64.9949 18.9303C64.9591 19.1492 64.8224 19.3108 64.6912 19.2893Z" stroke="#F2F3F4" stroke-width="11.275" mask="url(#path-1-outside-1_1326_2465)"/>
<path d="M54.5629 19.6766C54.3698 19.645 54.3035 19.4503 54.4159 19.2439C54.5283 19.0376 54.7156 18.8843 54.8323 18.9034C54.949 18.9225 55.0151 19.1172 54.9793 19.3361C54.9435 19.555 54.756 19.7082 54.5629 19.6766Z" stroke="#F2F3F4" stroke-width="11.275" mask="url(#path-1-outside-1_1326_2465)"/>
<path d="M49.8836 19.7227C49.5473 19.6624 49.5485 19.6038 49.8913 19.3215C50.396 18.9055 50.4214 18.9096 50.342 19.3952C50.3062 19.6141 50.0998 19.7614 49.8836 19.7227Z" stroke="#F2F3F4" stroke-width="11.275" mask="url(#path-1-outside-1_1326_2465)"/>
<path d="M129.767 32.5368C129.596 32.3748 129.467 32.1719 129.481 32.086C129.534 31.7636 129.934 32.0149 130.004 32.415C130.046 32.6532 129.945 32.7053 129.767 32.5368Z" stroke="#F2F3F4" stroke-width="11.275" mask="url(#path-1-outside-1_1326_2465)"/>
<path d="M47.651 19.2257C47.4781 19.3111 47.2246 19.2696 47.0876 19.1336C46.9508 18.9981 47.0923 18.9284 47.4021 18.9791C47.712 19.0298 47.8241 19.1408 47.651 19.2257Z" stroke="#F2F3F4" stroke-width="11.275" mask="url(#path-1-outside-1_1326_2465)"/>
<path d="M44.864 20.3356C44.7633 20.1818 44.7084 19.8876 44.7421 19.6815C44.8357 19.1091 44.9766 19.2617 45.0138 19.9756C45.0327 20.3424 44.9688 20.4958 44.864 20.3356Z" stroke="#F2F3F4" stroke-width="11.275" mask="url(#path-1-outside-1_1326_2465)"/>
<path d="M127.315 34.0149C127.345 33.8326 127.56 33.6304 127.793 33.5655C128.026 33.5011 128.246 33.4316 128.281 33.4112C128.317 33.3908 128.319 33.5326 128.288 33.7256C128.256 33.9191 128.012 34.1378 127.745 34.2119C127.479 34.2856 127.285 34.1972 127.315 34.0149Z" stroke="#F2F3F4" stroke-width="11.275" mask="url(#path-1-outside-1_1326_2465)"/>
<path d="M34.7094 20.1085C34.5782 20.0871 34.5626 19.9006 34.675 19.6943C34.7875 19.4879 34.924 19.3263 34.9788 19.3353C35.0335 19.3442 35.0489 19.5306 35.0131 19.7495C34.9773 19.9684 34.8405 20.13 34.7094 20.1085Z" stroke="#F2F3F4" stroke-width="11.275" mask="url(#path-1-outside-1_1326_2465)"/>
<path d="M27.2157 20.3561C27.1193 20.476 26.9224 20.4585 26.7788 20.3169C26.6197 20.1606 26.6885 20.075 26.9542 20.0988C27.1945 20.1205 27.3121 20.2362 27.2157 20.3561Z" stroke="#F2F3F4" stroke-width="11.275" mask="url(#path-1-outside-1_1326_2465)"/>
<path d="M17.1377 21.5264C16.4703 21.638 16.8818 21.0441 17.5921 20.8705C17.8572 20.8055 18.1232 20.7395 18.183 20.7231C18.2428 20.7068 18.1581 20.86 17.9949 21.063C17.8314 21.2664 17.4456 21.475 17.1377 21.5264Z" stroke="#F2F3F4" stroke-width="11.275" mask="url(#path-1-outside-1_1326_2465)"/>
<path d="M18.433 22.1579C18.3356 22.0091 18.356 21.6337 18.4784 21.3239C18.7916 20.5305 18.9011 20.6477 18.7439 21.6088C18.6703 22.0594 18.5303 22.3066 18.433 22.1579Z" stroke="#F2F3F4" stroke-width="11.275" mask="url(#path-1-outside-1_1326_2465)"/>
<path d="M10.3378 22.2536C10.2294 22.2359 10.2133 21.7768 10.3021 21.2335C10.3909 20.6902 10.5365 20.3573 10.6256 20.4932C10.7146 20.6296 10.7308 21.0882 10.6613 21.5133C10.5918 21.9384 10.4462 22.2713 10.3378 22.2536Z" stroke="#F2F3F4" stroke-width="11.275" mask="url(#path-1-outside-1_1326_2465)"/>
<path d="M8.67935 21.4647C8.62646 21.3212 8.6996 20.9899 8.84208 20.7284C9.05043 20.3456 9.10361 20.3543 9.11367 20.7711C9.12839 21.3661 8.82281 21.8539 8.67935 21.4647Z" stroke="#F2F3F4" stroke-width="11.275" mask="url(#path-1-outside-1_1326_2465)"/>
<path d="M9.59945 21.553C9.47244 21.209 9.38547 20.8254 9.40596 20.7C9.51268 20.0473 10.0087 20.6886 9.92664 21.3732C9.84258 22.0742 9.7999 22.0974 9.59945 21.553Z" stroke="#F2F3F4" stroke-width="11.275" mask="url(#path-1-outside-1_1326_2465)"/>
<path d="M15.1901 22.1173C14.9476 22.0437 14.7704 21.8537 14.7964 21.6949C14.8223 21.5365 15.042 21.4666 15.2845 21.5402C15.527 21.6137 15.7041 21.8037 15.6782 21.9625C15.6523 22.1209 15.4326 22.1908 15.1901 22.1173Z" stroke="#F2F3F4" stroke-width="11.275" mask="url(#path-1-outside-1_1326_2465)"/>
<path d="M7.24745 23.9959C7.10138 24.111 7.01291 24.0152 7.05079 23.7836C7.08866 23.5519 7.22111 23.3786 7.34505 23.3989C7.469 23.4192 7.55753 23.5145 7.54171 23.6113C7.5259 23.708 7.39352 23.8809 7.24745 23.9959Z" stroke="#F2F3F4" stroke-width="11.275" mask="url(#path-1-outside-1_1326_2465)"/>
</svg>
