<svg width="20" height="20" viewBox="0 0 20 20" fill="none" xmlns="http://www.w3.org/2000/svg">
<g clip-path="url(#clip0_1344_11280)">
<path d="M14.1666 7.50146C15.9791 7.51146 16.9608 7.5923 17.6008 8.2323C18.3333 8.9648 18.3333 10.1431 18.3333 12.4998V13.3331C18.3333 15.6906 18.3333 16.869 17.6008 17.6015C16.8691 18.3331 15.69 18.3331 13.3333 18.3331H6.66663C4.30996 18.3331 3.13079 18.3331 2.39913 17.6015C1.66663 16.8681 1.66663 15.6906 1.66663 13.3331V12.4998C1.66663 10.1431 1.66663 8.9648 2.39913 8.2323C3.03913 7.5923 4.02079 7.51146 5.83329 7.50146" stroke="#6B7280" stroke-width="1.5" stroke-linecap="round"/>
<path d="M10 12.4998V1.6665M10 1.6665L12.5 4.58317M10 1.6665L7.5 4.58317" stroke="#6B7280" stroke-width="1.5" stroke-linecap="round" stroke-linejoin="round"/>
</g>
<defs>
<clipPath id="clip0_1344_11280">
<rect width="20" height="20" fill="white"/>
</clipPath>
</defs>
</svg>
